<?xml version="1.0" encoding="utf-8"?>
<svg version="1.1" id="Layer_1" xmlns="http://www.w3.org/2000/svg" x="0px" y="0px" width="512px" viewBox="0 0 512 512" enable-background="new 0 0 512 512" xmlns:bx="https://boxy-svg.com" height="512px"><defs><bx:export><bx:file format="svg"/></bx:export></defs><path fill="#D88C04" opacity="1.000000" stroke="none" d=" M54.764275,213.890884 C43.972427,208.191330 33.177647,202.497314 22.390640,196.788605 C19.402048,195.206985 16.456045,188.078384 17.615114,184.845947 C27.485277,157.319824 36.521233,129.447662 47.642422,102.434776 C54.215004,86.470245 66.499924,74.123466 81.936386,65.542625 C95.488419,58.009296 109.410645,51.467216 124.822151,48.561981 C139.228043,45.846317 153.590378,42.896473 167.956650,39.974705 C176.694962,38.197544 185.356247,35.996578 194.139236,34.495743 C204.611908,32.706177 215.177872,31.462555 225.703278,29.981401 C236.062210,28.523670 246.415909,27.027445 256.781342,25.617340 C266.008179,24.362131 275.254333,23.248526 284.479980,21.984999 C292.251465,20.920639 299.997955,19.673754 307.769623,18.611004 C316.995453,17.349407 326.246368,16.269371 335.468201,14.980453 C345.667175,13.554965 355.838104,11.929431 366.035156,10.489486 C374.782806,9.254214 383.564941,8.258819 392.304718,6.973317 C402.254486,5.509854 412.174988,3.846952 422.102020,2.232879 C422.321167,2.197249 422.466309,1.706500 422.322998,1.214027 C428.021149,1.000000 434.042297,1.000000 440.531738,1.000007 C443.252777,2.757363 445.505554,4.514710 448.094910,6.812230 C448.977356,7.557340 449.523254,7.762277 450.069153,7.967212 C450.069153,7.967208 450.007080,7.984760 450.121918,8.293902 C451.510956,9.054992 452.785156,9.506939 454.059357,9.958887 C454.059357,9.958887 454.001801,9.986534 454.197083,10.178677 C454.940643,10.565178 455.488922,10.759538 456.037231,10.953896 C456.037231,10.953894 456.017334,11.002107 456.210632,11.198709 C456.950500,11.584190 457.497101,11.773067 458.043701,11.961948 C458.043701,11.961953 458.005585,12.001625 458.143860,12.184051 C458.494965,12.627632 458.752258,12.833106 459.054016,12.982900 C459.054016,12.982900 458.998138,12.999599 459.200745,13.191918 C459.950928,13.575095 460.498535,13.765953 461.046112,13.956816 C461.046112,13.956820 461.007355,13.999745 461.205170,14.191843 C461.950073,14.575048 462.497192,14.766157 463.044281,14.957262 C463.044281,14.957259 462.996155,14.993157 463.099854,15.309509 C464.822083,16.400370 466.440674,17.174877 468.059235,17.949379 C468.059235,17.949377 468.012238,17.991589 468.205505,18.183029 C468.947540,18.568756 469.496307,18.763041 470.045044,18.957329 C470.045044,18.957333 470.007141,19.000229 470.205322,19.192698 C470.950867,19.575769 471.498199,19.766373 472.045563,19.956974 C472.045563,19.956970 471.996155,19.990673 472.076782,20.366579 C472.098083,24.152534 472.038727,27.562582 471.831268,30.976038 C471.683167,30.979445 471.386230,30.979069 471.239990,30.678730 C470.380890,29.903246 469.667999,29.428104 468.775360,28.811043 C468.061920,29.006933 467.528229,29.344742 466.553345,29.741978 C451.312256,31.863705 436.520966,33.989899 421.710510,35.973110 C400.331635,38.835865 378.921661,41.470726 357.557617,44.438126 C340.956299,46.743992 324.401550,49.387573 307.832001,51.919582 C275.009857,56.935165 242.113434,61.522846 209.398697,67.163155 C186.326233,71.141068 163.356750,75.794113 141.209625,83.951614 C113.560966,94.135498 93.427246,111.730774 83.278397,139.805527 C78.131424,154.043579 73.301949,168.396103 68.237724,182.664505 C65.580139,190.152176 62.725830,197.570053 59.858551,205.128738 C59.640434,205.553207 59.736408,205.799316 60.034538,205.980591 C60.024414,205.984818 60.045273,205.951080 60.037552,206.313690 C60.016460,207.401550 60.003090,208.126816 59.724831,209.061584 C58.947948,210.687973 58.435951,212.104858 57.532921,213.586227 C56.349354,213.730774 55.556812,213.810837 54.764275,213.890884 z"/><path fill="#F3CC1B" opacity="1.000000" stroke="none" d=" M115.468399,513.000000 C114.444023,512.241028 114.051537,511.181152 113.303894,510.774902 C109.995781,508.977356 106.585564,507.367645 102.993439,505.032349 C102.162704,502.872955 101.550835,501.371216 101.310219,499.937866 C103.127083,500.340271 104.572685,500.674316 106.007126,501.006775 C105.995956,501.005188 105.983803,500.986206 106.178589,501.272186 C109.226189,502.848663 112.079018,504.139160 115.117004,505.730255 C122.295525,508.793549 129.486328,509.073425 136.755051,507.521790 C156.403519,503.327545 170.003479,491.271515 178.948471,473.857178 C183.562042,464.875366 187.039429,455.309906 191.080261,446.269806 C191.363342,446.996704 191.596359,447.461975 191.829376,447.927246 C190.160217,453.775421 189.220337,459.968994 186.652100,465.391327 C182.735016,473.661407 177.686493,481.395081 173.131744,489.364105 C172.335037,490.758057 171.603760,492.189362 170.243286,493.893402 C169.410446,494.538696 169.176559,494.894043 168.942688,495.249390 C167.895203,496.404877 166.847733,497.560394 165.240540,498.926453 C164.456497,499.450134 164.232178,499.763245 164.007874,500.076324 C164.007858,500.076324 164.007599,500.007843 163.770355,500.079224 C163.358078,500.465271 163.183075,500.779968 163.008057,501.094696 C163.008072,501.094696 162.988708,501.005432 162.842804,501.116394 C162.440613,501.389893 162.216644,501.588867 162.025024,501.824188 C161.254730,502.482880 160.484436,503.141541 159.228516,504.026031 C158.470139,504.398865 158.231323,504.588531 158.026398,504.820862 C158.026398,504.820862 157.612228,504.974640 157.148300,505.110626 C156.454483,505.521759 156.224609,505.796906 155.994720,506.072052 C155.994720,506.072052 156.008179,506.009033 155.674408,505.935272 C153.563019,506.931732 151.785400,508.001953 150.007782,509.072174 C150.007782,509.072174 150.003418,509.009857 149.628143,508.948730 C144.501907,510.258423 139.750961,511.629211 135.000000,513.000000 C128.645599,513.000000 122.291206,513.000000 115.468399,513.000000 z"/><path fill="#F0D374" opacity="1.000000" stroke="none" d=" M135.454102,513.000000 C139.750961,511.629211 144.501907,510.258423 149.656311,508.962189 C148.161835,510.176483 146.263901,511.316223 144.682983,512.727966 C141.969406,513.000000 138.938812,513.000000 135.454102,513.000000 z"/><path fill="#D88C03" opacity="1.000000" stroke="none" d=" M461.097076,327.967499 C464.939972,329.939697 468.868835,331.768860 472.562836,333.988800 C473.441895,334.517029 473.824677,336.326508 473.937744,337.591187 C474.325745,341.930664 474.492615,346.289917 474.203308,350.694916 C473.115112,350.894867 472.137024,350.955017 472.087402,351.201813 C471.674805,353.254486 471.433441,355.341614 471.148834,357.756866 C470.819519,358.906708 470.481689,359.717957 469.855927,360.184998 C469.690765,356.080902 469.860168,352.321777 469.920166,348.560913 C469.961182,345.988068 470.725037,343.142853 466.393921,342.954865 C460.248962,342.688171 457.655060,343.798492 457.054138,347.768402 C455.031860,361.129089 450.800507,373.439270 442.022583,384.152557 C431.287231,397.254883 408.097168,404.821716 391.840759,400.203247 C378.728333,396.477997 372.021729,386.991272 368.201782,375.003693 C378.084473,375.637848 386.536530,372.211151 393.894104,367.136780 C405.884796,358.866913 413.335052,347.027802 417.040161,332.885773 C417.534637,330.998474 418.455292,329.225739 419.006683,327.349426 C419.350677,326.178894 419.791046,324.785583 419.463593,323.713623 C418.238770,319.704163 419.644043,317.569763 423.689636,317.182709 C428.799805,316.693787 433.924438,316.356384 439.042847,315.953613 C439.042847,315.953613 439.007111,315.999298 439.203308,316.192261 C439.945740,316.575653 440.491974,316.766113 441.038208,316.956604 C441.038208,316.956604 441.001221,316.997559 441.095947,317.311340 C444.142578,319.067108 447.094513,320.509094 450.046448,321.951111 C450.046448,321.951111 450.003906,321.998260 450.175171,322.284119 C452.243011,323.363831 454.139557,324.157684 456.036133,324.951538 C456.036133,324.951538 456.019440,325.000946 456.210663,325.197937 C456.947845,325.582062 457.493835,325.769196 458.039795,325.956360 C458.039795,325.956360 458.003571,325.996338 458.058655,326.284180 C459.108185,327.037201 460.102631,327.502350 461.097076,327.967499 z"/><path fill="#D5991A" opacity="1.000000" stroke="none" d=" M258.011627,356.873779 C258.344055,343.790771 258.527710,330.701813 259.054626,317.626617 C259.499237,306.594116 260.235565,295.569946 261.033417,284.555878 C262.275879,267.404846 263.556793,250.254822 265.049957,233.124283 C266.559937,215.800949 268.422424,198.508591 269.992188,181.190140 C271.427032,165.360077 272.660767,149.511856 274.029053,133.675598 C274.195801,131.745911 274.647949,129.840866 275.156311,127.321419 C275.839722,126.114609 276.334686,125.510780 277.017914,125.260818 C277.347595,126.905960 277.702881,128.214981 277.597565,129.485809 C276.433411,143.531235 275.229431,157.573578 273.970398,171.610840 C273.126190,181.023331 272.160889,190.424927 271.277893,199.834030 C270.162354,211.721313 268.971985,223.602875 268.007019,235.502579 C267.148956,246.084183 266.562012,256.687683 265.841797,267.280579 C264.559570,286.140228 263.247437,304.997803 261.988251,323.858948 C261.457855,331.803741 260.745941,339.750824 260.619476,347.704865 C260.408386,360.979675 259.907898,374.312805 260.895966,387.519135 C261.450928,394.936279 264.939056,402.100769 266.767456,409.463074 C270.097687,422.872833 278.195587,433.307159 287.696899,442.675629 C297.091461,451.938812 309.414368,456.572510 321.212555,462.406250 C321.578339,463.381012 321.814087,464.100311 322.049866,464.819641 C309.890900,460.957520 298.742981,454.962646 288.824615,447.127258 C274.964233,436.177795 266.416504,421.444519 261.880585,404.497009 C260.088593,397.801575 259.273132,390.844757 258.038330,383.089691 C258.046265,373.739532 258.028961,365.306671 258.011627,356.873779 z"/><path fill="#F4CC1C" opacity="1.000000" stroke="none" d=" M322.362549,464.976746 C321.814087,464.100311 321.578339,463.381012 321.562561,462.391327 C323.138550,462.474152 324.494507,462.827362 326.069946,463.437164 C338.656738,472.007629 352.399597,474.309265 367.095276,474.182922 C396.421692,473.930786 419.052582,460.898621 437.082275,438.800629 C448.347839,424.992920 455.886169,409.034790 462.008820,392.416382 C464.870880,384.647949 467.267548,376.708069 469.868774,369.255981 C469.481659,371.756500 469.132599,373.853271 468.713745,375.936005 C467.826996,380.345520 466.903839,384.747711 465.995667,389.152893 C463.240570,396.321686 460.869141,403.667816 457.653717,410.623810 C449.985046,427.213684 441.102875,443.106628 427.610992,455.822632 C424.334686,458.910553 420.398102,461.297943 416.210602,464.200439 C415.408081,464.615906 415.191589,464.865692 415.006592,465.142792 C415.028381,465.439148 414.917358,465.672241 414.075623,465.861053 C410.660156,467.612244 407.842621,469.344482 405.025085,471.076721 C405.025085,471.076691 405.004913,471.014496 404.644104,470.965790 C401.591492,472.220703 398.899719,473.524323 396.207947,474.827942 C396.029419,474.880005 395.850891,474.932068 395.036163,474.948517 C393.596344,475.301270 392.792664,475.689636 391.988983,476.078003 C391.988983,476.078003 392.004486,476.011902 391.662018,475.940277 C390.208069,476.271637 389.096558,476.674622 387.985046,477.077576 C387.985046,477.077576 388.002838,477.011078 387.642670,476.942200 C385.849243,477.274658 384.415955,477.675964 382.982697,478.077240 C382.982697,478.077240 383.002502,478.010651 382.616821,477.937988 C380.145630,478.266876 378.060120,478.668457 375.974579,479.070068 C375.974579,479.070038 375.997162,479.001434 375.717651,478.970642 C374.891113,479.229919 374.344116,479.519989 373.797119,479.810028 C361.949371,480.531860 350.174988,480.105377 339.253082,474.953918 C333.469788,472.226166 328.185028,468.441406 322.362549,464.976746 z"/><path fill="#F4CD1B" opacity="1.000000" stroke="none" d=" M386.008057,111.819099 C382.978394,112.216301 379.948761,112.613495 376.266663,112.870483 C375.095520,112.131668 374.576843,111.533051 374.075745,110.545120 C375.414032,108.826859 376.517395,106.884445 378.109161,106.320358 C380.217438,105.573250 382.729309,106.062462 385.030334,105.747322 C414.325470,101.735291 443.613892,97.674301 473.129700,93.834549 C473.853119,94.688606 474.350830,95.333885 474.848541,95.979156 C474.653107,100.520912 470.692200,99.423172 468.309143,99.883484 C460.039642,101.480812 451.685547,102.664825 443.339874,103.837044 C432.885132,105.305511 422.406921,106.607048 411.199951,107.695526 C402.860809,108.321548 395.256165,109.199181 387.668762,110.206726 C387.054657,110.288277 386.558838,111.260666 386.008057,111.819099 z"/><path fill="#D5991A" opacity="1.000000" stroke="none" d=" M221.824860,181.926453 C222.190598,183.316254 222.953842,184.735153 222.854568,186.090897 C222.376724,192.616486 221.608444,199.120087 221.050629,205.640686 C219.980835,218.146164 218.932388,230.653915 217.972809,243.168213 C217.231216,252.839432 216.855591,262.542938 215.927872,272.194641 C214.612915,285.875275 212.845871,299.511932 211.459778,313.186432 C210.774033,319.951904 210.636795,326.771667 210.017899,333.545563 C209.332062,341.052216 208.359222,348.532288 207.549820,356.028076 C206.911118,361.942963 206.330704,367.864166 205.139130,373.648865 C204.579407,370.808136 204.814896,368.081512 204.564484,365.400238 C204.362061,363.232788 203.574203,361.120056 203.033432,358.606934 C203.082443,357.480164 203.144089,356.729523 203.576996,355.934723 C204.473816,355.536743 205.419006,355.226868 205.461395,354.822388 C206.009064,349.596863 206.499069,344.361786 206.791977,339.117310 C206.829468,338.445953 205.671722,337.707886 205.056213,336.681458 C205.274857,335.562500 205.505005,334.762817 206.121338,333.849731 C207.200928,328.552856 207.924225,323.372772 208.517654,318.177856 C208.555511,317.846527 207.586227,317.400116 207.062668,316.603882 C207.096497,315.126312 207.153137,314.052063 207.576447,312.935791 C208.606461,310.239838 209.269806,307.585938 209.958557,304.935791 C209.983963,304.939514 209.952286,304.979950 210.153824,304.797546 C210.517624,304.290955 210.679886,303.966705 210.782745,303.609253 C210.723328,303.576050 210.771698,303.448822 210.814865,302.961121 C210.269684,299.319794 209.681320,296.166168 209.080444,292.631287 C209.132355,291.490540 209.196808,290.731110 209.627396,289.926636 C210.511993,289.521027 211.443771,289.203308 211.486282,288.793427 C212.026886,283.579590 212.510406,278.356384 212.797974,273.124023 C212.834869,272.452820 211.684219,271.716339 211.066086,270.630341 C211.102692,269.493103 211.156906,268.735657 211.573227,267.938538 C212.820328,265.777374 214.395004,263.674561 214.453156,261.530609 C214.593674,256.349762 216.893082,250.877991 213.099823,245.665482 C213.319672,244.201019 213.559448,243.087601 214.118073,241.910248 C215.282593,236.440292 216.347198,231.054489 216.850021,225.616730 C217.016174,223.819717 215.733505,221.888748 215.098053,219.637177 C215.144684,218.494431 215.206528,217.733521 215.634583,216.925812 C216.517120,216.516098 217.449860,216.191315 217.487137,215.784485 C218.025208,209.913864 218.505569,204.035385 218.804535,198.148895 C218.839066,197.469009 217.704437,196.729752 217.090408,195.637650 C217.116394,194.497849 217.163879,193.738403 217.572891,192.937683 C221.012299,190.327332 220.865860,187.694672 218.069641,184.632507 C218.091873,183.501038 218.134552,182.747162 218.542099,182.001068 C219.879578,181.981400 220.852219,181.953934 221.824860,181.926453 z"/><path fill="#D5991A" opacity="1.000000" stroke="none" d=" M191.030212,446.008179 C187.039429,455.309906 183.562042,464.875366 178.948471,473.857178 C170.003479,491.271515 156.403519,503.327545 136.755051,507.521790 C129.486328,509.073425 122.295525,508.793549 115.154099,505.340942 C115.034149,504.394592 115.062286,504.138184 115.522522,503.894775 C117.278908,504.032928 118.616684,504.077118 119.925484,504.295258 C139.833313,507.612915 155.419037,499.778168 167.920135,485.038452 C177.551865,473.681915 183.006699,460.029419 187.005127,445.856201 C189.973938,435.332581 192.394547,424.654358 195.291107,414.121063 C196.364838,413.813019 197.206802,413.428894 198.091614,413.439636 C198.375534,415.588226 198.616623,417.341949 198.857697,419.095673 C198.857697,419.095673 198.993301,419.528442 198.580734,419.860352 C196.766159,425.459381 195.364151,430.726471 193.718567,436.261536 C192.988876,438.697510 192.502762,440.865540 192.005371,443.016296 C191.994125,442.999054 192.034409,442.990387 191.815826,443.238708 C191.400436,444.335144 191.203629,445.183258 191.002472,446.017059 C190.998123,446.002777 191.030197,446.008179 191.030212,446.008179 z"/><path fill="#D69A18" opacity="1.000000" stroke="none" d=" M438.850372,315.608643 C433.924438,316.356384 428.799805,316.693787 423.689636,317.182709 C419.644043,317.569763 418.238770,319.704163 419.463593,323.713623 C419.791046,324.785583 419.350677,326.178894 419.006683,327.349426 C418.455292,329.225739 417.534637,330.998474 417.040161,332.885773 C413.335052,347.027802 405.884796,358.866913 393.894104,367.136780 C386.536530,372.211151 378.084473,375.637848 367.944244,374.799561 C366.511292,373.301788 365.564667,372.079895 365.119110,370.696594 C361.389709,359.117981 358.550659,347.372620 359.197144,334.736938 C359.650269,331.554565 359.868530,328.708374 360.273621,326.083313 C360.918060,326.925049 361.375671,327.545746 361.833313,328.166412 C363.883179,340.688080 365.889313,353.217194 368.029907,365.723328 C368.352631,367.608826 369.110687,369.493774 370.043518,371.169647 C370.511627,372.010529 371.931488,373.006744 372.742279,372.870392 C388.353485,370.245453 400.145294,361.961426 407.876556,348.193298 C412.937988,339.179626 415.858429,329.402008 417.082581,319.102173 C417.218628,317.957611 418.506042,316.210022 419.496613,316.027313 C425.822968,314.860291 432.161377,312.426788 438.850372,315.608643 z"/><path fill="#D69A18" opacity="1.000000" stroke="none" d=" M374.058228,110.934433 C374.576843,111.533051 375.095520,112.131668 375.849640,112.911789 C373.646637,149.631943 371.208221,186.170609 368.166168,222.601044 C367.005524,218.903244 366.448486,215.313675 365.874023,211.568481 C365.856537,211.412857 365.881897,211.094742 366.230896,210.947021 C368.507202,208.363052 368.975220,206.042572 366.034851,203.633606 C366.316956,201.879318 366.604156,200.483459 367.231018,198.947815 C369.491455,196.662949 369.862732,194.666367 367.004578,192.647491 C367.024353,191.875778 367.051422,191.435196 367.411469,190.858414 C369.223236,187.182312 371.893677,183.674759 368.014099,179.610703 C368.294281,177.536011 368.596191,175.840576 369.166534,173.865448 C370.899109,170.639175 372.622070,167.680008 369.005951,164.649841 C369.017517,163.879318 369.039154,163.439224 369.394226,162.862045 C369.778961,160.432343 369.830261,158.139725 369.869141,155.502258 C369.871094,154.467575 369.885468,153.777740 370.258728,152.928619 C372.488983,149.393402 373.336334,146.076691 370.030090,142.562042 C370.312988,139.107635 370.618500,136.089981 371.278168,132.916718 C373.380402,129.705963 374.209351,126.713181 371.016724,123.561028 C371.056702,121.407639 371.117676,119.684937 371.492615,117.829071 C372.557098,115.442085 373.307648,113.188263 374.058228,110.934433 z"/><path fill="#F6CD10" opacity="1.000000" stroke="none" d=" M276.829651,124.906952 C276.334686,125.510780 275.839722,126.114609 275.111389,126.896240 C274.877991,127.074059 274.400513,127.072990 273.828247,126.980743 C271.644531,126.820114 270.004425,126.522217 268.426147,126.719246 C254.301254,128.482529 240.187256,130.332977 225.801987,132.106018 C225.353333,132.031326 225.172760,132.008377 225.022385,131.593185 C226.182190,130.110901 227.154800,128.368271 228.470444,128.051834 C232.601807,127.058159 236.908157,126.803345 241.055847,125.861969 C243.626205,125.278587 246.031601,123.968315 248.673447,122.979095 C249.052628,122.970711 249.269196,122.975906 249.801498,123.223312 C252.057953,123.539436 254.030838,123.886299 255.932816,123.653534 C261.305237,122.996048 266.651154,122.117683 272.002289,121.292450 C274.875702,120.849312 277.015442,121.303642 276.829651,124.906952 z"/><path fill="#D69A18" opacity="1.000000" stroke="none" d=" M474.923340,95.606949 C474.350830,95.333885 473.853119,94.688606 473.121033,93.536224 C472.238617,92.334351 471.590576,91.639580 470.963013,90.516235 C471.068024,88.373627 471.152557,86.659599 471.569000,84.780640 C472.270081,83.236992 472.953247,81.859871 472.960266,80.479309 C473.037140,65.391251 473.035675,50.302525 472.963440,35.214413 C472.956665,33.798946 472.322327,32.386486 471.979370,30.972630 C472.038727,27.562582 472.098083,24.152534 472.099243,20.344711 C476.333130,20.339806 474.672607,23.653131 474.949829,26.875164 C474.902283,49.239067 474.910217,70.716393 474.918152,92.193710 C474.944794,93.207382 474.971466,94.221062 474.923340,95.606949 z"/><path fill="#D5991A" opacity="1.000000" stroke="none" d=" M227.188660,134.007202 C225.712463,149.580902 224.236282,165.154602 222.155212,180.619202 C220.737213,177.340500 219.924103,174.170914 219.082336,170.651962 C219.304047,169.194870 219.554398,168.087128 220.162689,166.875916 C220.616531,164.754181 220.712448,162.735947 220.787567,160.360245 C220.797089,159.048904 220.827377,158.095032 221.216583,156.974319 C223.379120,153.762604 224.262772,150.769714 221.063828,147.668884 C221.330475,146.254684 221.611389,145.178314 222.239105,143.951843 C224.485550,141.378845 224.991394,139.061676 222.048111,136.610641 C222.071533,135.167068 222.117203,134.117325 222.325745,133.216766 C223.339890,133.263901 224.191162,133.161835 225.267487,133.254471 C226.057907,133.635178 226.623276,133.821198 227.188660,134.007202 z"/><path fill="#D69A18" opacity="1.000000" stroke="none" d=" M367.830414,223.940140 C368.214935,224.983017 369.026184,226.072891 368.917267,227.061432 C367.938873,235.944687 366.798828,244.810150 365.147369,253.667175 C363.733093,253.095642 362.877716,252.537750 362.004700,251.563492 C362.053833,249.758133 362.120636,248.369156 362.561768,246.934326 C365.497009,244.141815 366.578033,231.145081 364.479584,228.190689 C364.397797,228.075577 364.184235,228.054108 364.019501,227.657410 C364.038422,226.884964 364.069916,226.444092 364.397797,225.920258 C365.739594,225.204926 366.785004,224.572540 367.830414,223.940140 z"/><path fill="#F1CF7B" opacity="1.000000" stroke="none" d=" M227.597168,133.987549 C226.623276,133.821198 226.057907,133.635178 225.269577,133.240906 C225.046616,133.032654 225.057526,133.013962 225.253082,132.904633 C225.687500,132.613708 225.894638,132.401199 226.070053,132.157776 C240.187256,130.332977 254.301254,128.482529 268.426147,126.719246 C270.004425,126.522217 271.644531,126.820114 273.598572,127.045975 C265.518555,128.470276 257.098541,129.755173 248.672363,130.998291 C241.787308,132.014023 234.894867,132.979904 227.597168,133.987549 z"/><path fill="#D69A18" opacity="1.000000" stroke="none" d=" M362.828308,283.940552 C362.897095,286.749329 363.090424,289.561798 363.006470,292.365997 C362.868988,296.955872 362.551117,301.540314 361.760223,306.573914 C360.805420,307.163269 360.399780,307.305786 359.926910,307.209290 C359.859711,306.970306 359.868927,306.474823 359.894531,306.039001 C359.562347,304.005371 359.204620,302.407562 358.835388,300.437439 C358.847107,299.072296 358.870361,298.079498 359.241333,296.939697 C361.517487,294.353394 361.945526,292.036163 359.015503,289.642029 C359.229065,288.196716 359.462799,287.099884 359.966064,285.838257 C361.099854,285.095795 361.964081,284.518188 362.828308,283.940552 z"/><path fill="#D69A18" opacity="1.000000" stroke="none" d=" M364.828217,258.937836 C364.855988,264.649475 364.990295,270.363556 364.858032,276.071472 C364.806671,278.288605 364.153351,280.491791 363.178162,282.623230 C361.733612,280.358521 360.885132,278.171875 360.016724,275.621765 C360.272675,273.860840 360.548553,272.463379 361.193054,270.919434 C362.039734,268.515228 362.426758,266.232941 363.025085,264.007507 C363.489319,262.280853 364.217438,260.625092 364.828217,258.937836 z"/><path fill="#FFBF80" opacity="1.000000" stroke="none" d=" M475.298340,91.948990 C474.910217,70.716393 474.902283,49.239067 474.912231,27.275469 C475.278229,27.293951 475.931732,27.799398 475.930603,28.303377 C475.883179,49.437084 475.777191,70.570671 475.298340,91.948990 z"/><path fill="#D5991A" opacity="1.000000" stroke="none" d=" M204.845779,374.988464 C204.402145,380.010040 203.936905,385.029907 203.532745,390.054657 C203.449692,391.087402 203.594910,392.138519 203.396790,393.637085 C202.181320,395.824890 201.203964,397.556732 200.172562,398.861938 C199.249588,395.687592 203.112869,392.353790 199.084076,389.724365 C199.302902,388.952393 199.511276,388.454834 200.062744,387.886078 C202.572876,386.308960 202.315979,385.043152 200.012207,383.578308 C200.071365,382.112762 200.144135,381.047668 200.562988,379.949982 C202.221298,378.274414 203.533539,376.631439 204.845779,374.988464 z"/><path fill="#F1CF71" opacity="1.000000" stroke="none" d=" M466.341644,388.965027 C466.903839,384.747711 467.826996,380.345520 468.713745,375.936005 C469.132599,373.853271 469.481659,371.756500 469.947021,368.874512 C470.043396,365.561310 470.055115,363.039703 470.084930,360.530518 C470.103027,360.542938 470.143860,360.529236 470.143860,360.529236 C470.481689,359.717957 470.819519,358.906708 471.428223,357.716888 C472.075073,357.339355 472.451019,357.340332 472.826965,357.341339 C470.780518,367.819946 468.734100,378.298584 466.341644,388.965027 z"/><path fill="#EFD258" opacity="1.000000" stroke="none" d=" M193.962128,435.993591 C195.364151,430.726471 196.766159,425.459381 198.513504,420.076904 C197.196472,428.470642 195.563416,436.985748 193.816208,445.477386 C193.676331,446.157196 192.749359,446.675079 192.008774,447.597717 C191.596359,447.461975 191.363342,446.996704 191.080261,446.269806 C191.030197,446.008179 190.998123,446.002777 191.206436,445.759644 C191.621307,444.674469 191.827850,443.832428 192.034393,442.990387 C192.034409,442.990387 191.994125,442.999054 192.211304,442.721222 C192.939713,440.293457 193.450928,438.143524 193.962128,435.993591 z"/><path fill="#D88B01" opacity="1.000000" stroke="none" d=" M204.917587,374.788330 C203.533539,376.631439 202.221298,378.274414 200.568817,379.610229 C201.167740,372.529694 202.106903,365.756378 203.046066,358.983032 C203.574203,361.120056 204.362061,363.232788 204.564484,365.400238 C204.814896,368.081512 204.579407,370.808136 204.806290,373.841919 C205.058731,374.168701 204.989395,374.588226 204.917587,374.788330 z"/><path fill="#F2D46B" opacity="1.000000" stroke="none" d=" M200.226593,399.288574 C201.203964,397.556732 202.181320,395.824890 203.485718,393.994202 C202.550018,401.309509 201.300873,408.726013 200.003967,416.134186 C199.871964,416.888153 199.452759,417.591827 199.012283,418.707275 C198.616623,417.341949 198.375534,415.588226 198.152618,413.144470 C198.182602,412.054291 198.194427,411.654114 198.454468,410.958832 C199.185440,407.466370 199.668228,404.269043 200.186920,400.775208 C200.224075,400.082001 200.225327,399.685272 200.226593,399.288574 z"/><path fill="#D88F03" opacity="1.000000" stroke="none" d=" M364.901611,258.537994 C364.217438,260.625092 363.489319,262.280853 363.025085,264.007507 C362.426758,266.232941 362.039734,268.515228 361.204163,270.504608 C361.238525,264.150757 361.630432,258.065308 362.022339,251.979858 C362.877716,252.537750 363.733093,253.095642 364.829407,253.856140 C365.038574,255.418549 365.006805,256.778351 364.901611,258.537994 z"/><path fill="#EAC453" opacity="1.000000" stroke="none" d=" M359.994110,307.448303 C360.399780,307.305786 360.805420,307.163269 361.516602,306.915222 C361.883942,313.607574 361.945770,320.405457 361.920441,327.684875 C361.375671,327.545746 360.918060,326.925049 360.277710,325.628601 C360.058685,319.131439 360.022430,313.310059 359.989136,307.477417 C359.992065,307.466156 359.994110,307.448303 359.994110,307.448303 z"/><path fill="#F0D374" opacity="1.000000" stroke="none" d=" M386.417969,111.879318 C386.558838,111.260666 387.054657,110.288277 387.668762,110.206726 C395.256165,109.199181 402.860809,108.321548 410.777069,107.623100 C404.570679,108.900192 398.046783,109.955765 391.526886,111.035416 C389.953766,111.295898 388.393829,111.636032 386.417969,111.879318 z"/><path fill="#D88F03" opacity="1.000000" stroke="none" d=" M367.908752,223.749329 C366.785004,224.572540 365.739594,225.204926 364.368652,225.496719 C364.659241,220.678787 365.275360,216.201462 365.891479,211.724121 C366.448486,215.313675 367.005524,218.903244 367.814880,222.823303 C368.067169,223.153809 367.987122,223.558502 367.908752,223.749329 z"/><path fill="#D88B01" opacity="1.000000" stroke="none" d=" M219.110992,171.001328 C219.924103,174.170914 220.737213,177.340500 221.802048,180.838165 C222.053787,181.166245 221.978653,181.559036 221.901749,181.742737 C220.852219,181.953934 219.879578,181.981400 218.510071,181.579071 C218.445786,177.766617 218.778397,174.383972 219.110992,171.001328 z"/><path fill="#EDC489" opacity="1.000000" stroke="none" d=" M257.621826,357.090820 C258.028961,365.306671 258.046265,373.739532 258.034210,382.649231 C257.671722,380.967957 257.075714,378.812439 257.054932,376.651367 C256.992950,370.204712 257.156525,363.755859 257.621826,357.090820 z"/><path fill="#D69A18" opacity="1.000000" stroke="none" d=" M449.912964,321.626892 C447.094513,320.509094 444.142578,319.067108 441.115021,317.289276 C443.952759,318.403198 446.866150,319.852936 449.912964,321.626892 z"/><path fill="#D88F03" opacity="1.000000" stroke="none" d=" M360.036621,275.985229 C360.885132,278.171875 361.733612,280.358521 362.823761,282.848999 C363.065430,283.152832 362.984497,283.558716 362.906403,283.749634 C361.964081,284.518188 361.099854,285.095795 360.003235,285.382141 C359.859436,282.055634 359.948029,279.020447 360.036621,275.985229 z"/><path fill="#F0CD6C" opacity="1.000000" stroke="none" d=" M405.395172,471.051575 C407.842621,469.344482 410.660156,467.612244 413.878235,465.900879 C411.440948,467.623291 408.603088,469.324860 405.395172,471.051575 z"/><path fill="#F0CD6C" opacity="1.000000" stroke="none" d=" M396.562256,474.886505 C398.899719,473.524323 401.591492,472.220703 404.673889,470.979309 C402.348511,472.342712 399.632538,473.643890 396.562256,474.886505 z"/><path fill="#DA9A05" opacity="1.000000" stroke="none" d=" M472.914246,356.932190 C472.451019,357.340332 472.075073,357.339355 471.419739,357.378326 C471.433441,355.341614 471.674805,353.254486 472.087402,351.201813 C472.137024,350.955017 473.115112,350.894867 473.877136,350.913788 C473.728180,352.893921 473.364838,354.708466 472.914246,356.932190 z"/><path fill="#D69A18" opacity="1.000000" stroke="none" d=" M455.902283,324.622803 C454.139557,324.157684 452.243011,323.363831 450.184387,322.253754 C451.937653,322.723053 453.853027,323.508545 455.902283,324.622803 z"/><path fill="#F0D374" opacity="1.000000" stroke="none" d=" M150.379059,509.053131 C151.785400,508.001953 153.563019,506.931732 155.702316,505.951355 C154.292786,507.038818 152.521561,508.036469 150.379059,509.053131 z"/><path fill="#D69A18" opacity="1.000000" stroke="none" d=" M467.927490,17.632650 C466.440674,17.174877 464.822083,16.400370 463.120728,15.286565 C464.623871,15.736817 466.209808,16.526367 467.927490,17.632650 z"/><path fill="#F4D286" opacity="1.000000" stroke="none" d=" M376.321381,479.124207 C378.060120,478.668457 380.145630,478.266876 382.649475,477.949829 C380.934601,478.415680 378.801392,478.796997 376.321381,479.124207 z"/><path fill="#D69A18" opacity="1.000000" stroke="none" d=" M460.966248,327.663544 C460.102631,327.502350 459.108185,327.037201 458.078308,326.262451 C458.973755,326.421753 459.904572,326.890656 460.966248,327.663544 z"/><path fill="#D69A18" opacity="1.000000" stroke="none" d=" M453.907318,9.654388 C452.785156,9.506939 451.510956,9.054992 450.131897,8.263239 C451.269775,8.398920 452.512543,8.874406 453.907318,9.654388 z"/><path fill="#F4D286" opacity="1.000000" stroke="none" d=" M383.380615,478.051117 C384.415955,477.675964 385.849243,477.274658 387.675018,476.953918 C386.637878,477.364655 385.208221,477.694824 383.380615,478.051117 z"/><path fill="#F4D286" opacity="1.000000" stroke="none" d=" M388.364868,477.051117 C389.096558,476.674622 390.208069,476.271637 391.693787,475.952240 C390.960266,476.365448 389.852509,476.695038 388.364868,477.051117 z"/><path fill="#F4D286" opacity="1.000000" stroke="none" d=" M392.349609,476.051270 C392.792664,475.689636 393.596344,475.301270 394.758667,474.977112 C394.315002,475.369080 393.512634,475.696808 392.349609,476.051270 z"/><path fill="#F4D286" opacity="1.000000" stroke="none" d=" M374.135162,479.872314 C374.344116,479.519989 374.891113,479.229919 375.752014,478.981842 C375.534973,479.327423 375.004089,479.631012 374.135162,479.872314 z"/><path fill="#D69A18" opacity="1.000000" stroke="none" d=" M449.940613,7.684062 C449.523254,7.762277 448.977356,7.557340 448.242920,7.127160 C448.640259,7.068248 449.226166,7.234579 449.940613,7.684062 z"/><path fill="#D69A18" opacity="1.000000" stroke="none" d=" M440.921112,316.665955 C440.491974,316.766113 439.945740,316.575653 439.203369,316.163269 C439.606171,316.085968 440.205078,316.230621 440.921112,316.665955 z"/><path fill="#D69A18" opacity="1.000000" stroke="none" d=" M457.922943,325.666260 C457.493835,325.769196 456.947845,325.582062 456.207520,325.172607 C456.610809,325.092255 457.208435,325.234222 457.922943,325.666260 z"/><path fill="#D69A18" opacity="1.000000" stroke="none" d=" M455.921082,10.661129 C455.488922,10.759538 454.940643,10.565178 454.195251,10.146802 C454.600464,10.071310 455.202698,10.219835 455.921082,10.661129 z"/><path fill="#D69A18" opacity="1.000000" stroke="none" d=" M469.924316,18.666893 C469.496307,18.763041 468.947540,18.568756 468.200867,18.151798 C468.603180,18.078236 469.203369,18.227348 469.924316,18.666893 z"/><path fill="#D69A18" opacity="1.000000" stroke="none" d=" M471.925842,19.667145 C471.498199,19.766373 470.950867,19.575769 470.206055,19.164089 C470.607758,19.087782 471.206909,19.232548 471.925842,19.667145 z"/><path fill="#D69A18" opacity="1.000000" stroke="none" d=" M462.925354,14.666990 C462.497192,14.766157 461.950073,14.575048 461.205566,14.162912 C461.607574,14.086828 462.207001,14.231771 462.925354,14.666990 z"/><path fill="#D69A18" opacity="1.000000" stroke="none" d=" M460.926086,13.666990 C460.498535,13.765953 459.950928,13.575095 459.205627,13.163163 C459.607300,13.087116 460.206696,13.232142 460.926086,13.666990 z"/><path fill="#D69A18" opacity="1.000000" stroke="none" d=" M457.921143,11.675557 C457.497101,11.773067 456.950500,11.584190 456.209717,11.173258 C456.609863,11.097191 457.204193,11.243180 457.921143,11.675557 z"/><path fill="#D69A18" opacity="1.000000" stroke="none" d=" M458.980682,12.726025 C458.752258,12.833106 458.494965,12.627632 458.148376,12.156937 C458.312195,12.121315 458.609772,12.295232 458.980682,12.726025 z"/><path fill="#F0D374" opacity="1.000000" stroke="none" d=" M169.236023,495.116486 C169.176559,494.894043 169.410446,494.538696 169.947845,494.062256 C170.010696,494.288605 169.770020,494.636078 169.236023,495.116486 z"/><path fill="#F0D374" opacity="1.000000" stroke="none" d=" M164.300156,500.003845 C164.232178,499.763245 164.456497,499.450134 164.967239,499.038910 C165.033249,499.270996 164.812836,499.601196 164.300156,500.003845 z"/><path fill="#F0D374" opacity="1.000000" stroke="none" d=" M163.281128,501.027313 C163.183075,500.779968 163.358078,500.465271 163.804443,500.082428 C163.901901,500.329498 163.728043,500.644714 163.281128,501.027313 z"/><path fill="#F0CD6C" opacity="1.000000" stroke="none" d=" M415.250732,465.045380 C415.191589,464.865692 415.408081,464.615906 415.852844,464.245331 C415.864685,464.380829 415.679779,464.664398 415.250732,465.045380 z"/><path fill="#F0D374" opacity="1.000000" stroke="none" d=" M162.289062,501.846069 C162.216644,501.588867 162.440613,501.389893 162.887405,501.106567 C162.902954,501.279846 162.728027,501.573883 162.289062,501.846069 z"/><path fill="#F0D374" opacity="1.000000" stroke="none" d=" M158.289917,504.844299 C158.231323,504.588531 158.470139,504.398865 158.938873,504.130737 C158.941055,504.295624 158.747238,504.581696 158.289917,504.844299 z"/><path fill="#F0D374" opacity="1.000000" stroke="none" d=" M156.272141,505.999939 C156.224609,505.796906 156.454483,505.521759 156.927536,505.118225 C156.963654,505.302521 156.756607,505.615173 156.272141,505.999939 z"/><path fill="#D79910" opacity="1.000000" stroke="none" d=" M59.989716,208.852066 C60.003090,208.126816 60.016460,207.401550 60.445927,206.284424 C70.809105,206.958130 74.398254,200.422394 78.453217,192.808746 C84.032486,182.333038 90.383919,172.011475 97.946182,162.903946 C112.493324,145.384247 132.434250,136.794281 154.470566,133.152374 C163.521317,131.656586 172.816467,131.639709 182.117889,131.219284 C182.473114,132.024200 182.710876,132.559952 182.535004,133.110672 C178.833878,133.409378 175.534348,133.595322 172.261383,133.997467 C165.712494,134.802124 159.168793,135.661682 152.641693,136.625580 C149.274979,137.122787 147.844009,138.802689 149.993179,142.471588 C146.145462,149.643646 145.702850,157.184250 144.988525,164.711746 C143.579819,179.557281 142.527069,194.468475 140.291016,209.195206 C137.752167,225.916306 134.303818,242.513199 130.766403,259.060516 C129.664825,264.213501 126.988174,269.029724 124.826393,274.004150 C124.620216,274.008209 124.208206,273.989868 124.208206,273.989868 C126.975792,262.338654 130.040192,250.747772 132.424744,239.018692 C134.661331,228.017471 136.367645,216.897156 137.963348,205.779892 C139.820099,192.843948 141.476608,179.873077 142.877762,166.880447 C143.625320,159.948334 143.651443,152.938431 144.208832,145.326385 C144.584824,144.099945 144.755157,143.510757 145.075119,142.607788 C146.347260,137.951294 143.315414,138.603134 141.294037,139.512634 C132.240906,143.586014 122.851234,147.192154 114.449348,152.372086 C98.440971,162.241623 88.475685,177.624557 81.142632,194.373520 C76.990219,203.857819 71.536743,209.332260 60.987629,208.858047 C60.655571,208.843124 60.322380,208.853470 59.989716,208.852066 z"/><path fill="#F5CB12" opacity="1.000000" stroke="none" d=" M59.724831,209.061584 C60.322380,208.853470 60.655571,208.843124 60.987629,208.858047 C71.536743,209.332260 76.990219,203.857819 81.142632,194.373520 C88.475685,177.624557 98.440971,162.241623 114.449348,152.372086 C122.851234,147.192154 132.240906,143.586014 141.294037,139.512634 C143.315414,138.603134 146.347260,137.951294 144.697998,142.664825 C136.391083,146.232147 128.579193,149.355560 120.864380,152.702774 C119.685822,153.214111 118.956161,154.760117 118.018875,155.827591 C106.671326,162.355606 98.526634,172.112640 91.117630,182.594269 C90.785477,183.064178 90.948761,183.884277 90.214920,184.772491 C88.697693,186.686707 87.846817,188.369690 86.995934,190.052689 C86.995934,190.052689 86.989868,189.987045 86.695663,190.086456 C82.526176,197.391739 78.650894,204.597595 74.353363,211.809387 C68.595390,212.384125 63.259670,212.952942 57.923950,213.521744 C58.435951,212.104858 58.947948,210.687973 59.724831,209.061584 z"/><path fill="#D5991A" opacity="1.000000" stroke="none" d=" M100.938957,499.869476 C101.550835,501.371216 102.162704,502.872955 102.822357,504.717834 C89.104179,497.524200 73.290016,492.841675 62.655758,480.788635 C50.768051,467.314911 45.087315,451.205627 49.410160,432.371948 C50.157917,431.932892 50.538342,431.927368 50.944145,432.381195 C51.099438,441.685516 49.393833,450.724854 53.892517,459.095978 C57.438438,465.694214 59.455154,474.026886 64.743752,478.573395 C73.893753,486.439575 85.014481,492.031494 95.411644,498.409332 C96.967270,499.363617 99.082565,499.405518 100.938957,499.869476 z"/><path fill="#D8A651" opacity="1.000000" stroke="none" d=" M124.043976,274.333344 C124.208206,273.989868 124.620216,274.008209 124.784348,274.391602 C117.739922,300.779205 108.907272,326.163849 95.869232,349.900757 C93.199463,354.761353 90.006996,359.334869 87.029312,364.020599 C87.003151,364.000458 86.950981,363.959930 86.950981,363.959930 C89.719414,358.450287 92.600456,352.993866 95.235939,347.421356 C104.537201,327.754517 114.057465,308.182343 119.177956,286.838959 C120.182922,282.649994 122.284126,278.724060 124.043976,274.333344 z"/><path fill="#EFD258" opacity="1.000000" stroke="none" d=" M118.371712,155.786377 C118.956161,154.760117 119.685822,153.214111 120.864380,152.702774 C128.579193,149.355560 136.391083,146.232147 144.548370,142.978607 C144.755157,143.510757 144.584824,144.099945 144.194763,144.910522 C135.558228,148.669662 127.141388,152.207413 118.371712,155.786377 z"/><path fill="#F0CD6C" opacity="1.000000" stroke="none" d=" M74.775604,211.803452 C78.650894,204.597595 82.526176,197.391739 86.728622,190.086426 C83.387199,197.116791 79.718605,204.246597 75.673920,211.666168 C75.123741,211.905090 74.949669,211.854263 74.775604,211.803452 z"/><path fill="#EFCD84" opacity="1.000000" stroke="none" d=" M74.353363,211.809387 C74.949669,211.854263 75.123741,211.905090 75.564072,212.013214 C68.959221,212.934296 62.088116,213.798080 54.990646,214.276367 C55.556812,213.810837 56.349354,213.730774 57.532921,213.586227 C63.259670,212.952942 68.595390,212.384125 74.353363,211.809387 z"/><path fill="#D8A651" opacity="1.000000" stroke="none" d=" M50.918758,431.921875 C50.538342,431.927368 50.157917,431.932892 49.492249,431.945862 C51.087261,426.897522 52.967525,421.841675 55.270042,416.727448 C55.692303,416.669067 56.018425,417.011841 55.957123,417.370361 C54.236801,422.459900 52.577778,427.190887 50.918758,431.921875 z"/><path fill="#D8A651" opacity="1.000000" stroke="none" d=" M79.871796,375.880829 C82.018394,372.004120 84.164993,368.127380 86.631287,364.105286 C86.950981,363.959930 87.003151,364.000458 87.042847,364.401672 C84.846977,368.644897 82.611420,372.486908 80.249779,376.216980 C80.123695,376.105011 79.871796,375.880829 79.871796,375.880829 z"/><path fill="#D8A651" opacity="1.000000" stroke="none" d=" M59.971142,408.977112 C61.090660,406.730194 62.210182,404.483276 63.670547,402.121094 C64.011398,402.005859 64.048653,402.038025 64.051987,402.414490 C62.718735,404.872742 61.382145,406.954498 60.026985,409.021423 C60.008415,409.006592 59.971142,408.977112 59.971142,408.977112 z"/><path fill="#D8A651" opacity="1.000000" stroke="none" d=" M76.886948,380.896759 C77.666077,379.302460 78.445213,377.708130 79.548073,375.997314 C79.871796,375.880829 80.123695,376.105011 80.169479,376.546875 C79.263344,378.431335 78.311432,379.873962 77.241325,381.211670 C77.123131,381.106781 76.886948,380.896759 76.886948,380.896759 z"/><path fill="#D8A651" opacity="1.000000" stroke="none" d=" M56.966270,413.973358 C57.756229,412.392548 58.546192,410.811737 59.653648,409.104004 C59.971142,408.977112 60.008415,409.006592 60.019451,409.380707 C59.035633,411.181854 58.040779,412.608887 57.026009,414.020264 C57.006100,414.004639 56.966274,413.973358 56.966270,413.973358 z"/><path fill="#D8A651" opacity="1.000000" stroke="none" d=" M63.992996,401.989532 C64.761513,400.391174 65.548431,398.809113 66.672836,397.116302 C67.010330,397.005524 67.049469,397.039948 67.043716,397.399231 C66.041519,399.184998 65.045074,400.611511 64.048645,402.038025 C64.048653,402.038025 64.011398,402.005859 63.992996,401.989532 z"/><path fill="#D8A651" opacity="1.000000" stroke="none" d=" M66.990952,396.988098 C67.755455,395.388580 68.539337,393.806427 69.664207,392.112793 C70.005188,392.001282 70.057159,392.047119 70.053810,392.406311 C69.050133,394.190338 68.049805,395.615143 67.049469,397.039948 C67.049469,397.039948 67.010330,397.005524 66.990952,396.988098 z"/><path fill="#F0CD6C" opacity="1.000000" stroke="none" d=" M87.327484,189.933655 C87.846817,188.369690 88.697693,186.686707 89.924332,184.962982 C89.419731,186.553055 88.539383,188.183838 87.327484,189.933655 z"/><path fill="#D8A651" opacity="1.000000" stroke="none" d=" M73.970581,385.975983 C74.726868,384.364868 75.483154,382.753754 76.563202,381.019714 C76.886948,380.896759 77.123131,381.106781 77.152710,381.533752 C76.137596,383.319855 75.092918,384.678986 74.028809,386.022583 C74.009377,386.007080 73.970581,385.975983 73.970581,385.975983 z"/><path fill="#D8A651" opacity="1.000000" stroke="none" d=" M69.979401,391.978149 C70.423615,391.037323 70.893623,390.119629 71.687317,389.104126 C72.011009,389.006317 72.049263,389.039093 72.042885,389.378784 C71.376724,390.494690 70.716942,391.270905 70.057159,392.047119 C70.057159,392.047119 70.005188,392.001282 69.979401,391.978149 z"/><path fill="#D8A651" opacity="1.000000" stroke="none" d=" M71.992172,388.989594 C72.436920,388.050323 72.900497,387.127808 73.667328,386.090637 C73.970581,385.975983 74.009377,386.007080 74.015518,386.359833 C73.364197,387.488068 72.706726,388.263580 72.049255,389.039093 C72.049263,389.039093 72.011009,389.006317 71.992172,388.989594 z"/><path fill="#D8A651" opacity="1.000000" stroke="none" d=" M55.541180,416.487061 C55.728436,415.600220 56.066814,414.895416 56.685734,414.081970 C56.966274,413.973358 57.006100,414.004639 57.027557,414.349365 C56.705482,415.466705 56.361958,416.239258 56.018429,417.011841 C56.018425,417.011841 55.692303,416.669067 55.541180,416.487061 z"/><path fill="#F8D201" opacity="1.000000" stroke="none" d=" M182.000443,130.950104 C172.816467,131.639709 163.521317,131.656586 154.470566,133.152374 C132.434250,136.794281 112.493324,145.384247 97.946182,162.903946 C90.383919,172.011475 84.032486,182.333038 78.453217,192.808746 C74.398254,200.422394 70.809105,206.958130 60.453648,205.921814 C60.045273,205.951080 60.024414,205.984818 60.013287,205.741394 C60.002159,205.497986 59.960354,205.019440 59.960354,205.019440 C62.725830,197.570053 65.580139,190.152176 68.237724,182.664505 C73.301949,168.396103 78.131424,154.043579 83.278397,139.805527 C93.427246,111.730774 113.560966,94.135498 141.209625,83.951614 C163.356750,75.794113 186.326233,71.141068 209.398697,67.163155 C242.113434,61.522846 275.009857,56.935165 307.832001,51.919582 C324.401550,49.387573 340.956299,46.743992 357.557617,44.438126 C378.921661,41.470726 400.331635,38.835865 421.710510,35.973110 C436.520966,33.989899 451.312256,31.863705 466.828674,29.769526 C468.015198,29.476086 468.485138,29.214523 468.955109,28.952961 C469.667999,29.428104 470.380890,29.903246 471.148193,31.143850 C471.214111,49.588066 471.225616,67.266815 471.237122,84.945572 C471.152557,86.659599 471.068024,88.373627 470.542786,90.529541 C457.944458,92.725349 445.792358,94.519020 433.627838,96.224113 C414.230896,98.942978 394.819702,101.561409 375.438049,104.383881 C374.186279,104.566170 372.340607,105.981583 372.137512,107.076775 C371.476257,110.641899 371.449554,114.324707 371.178650,117.962227 C371.117676,119.684937 371.056702,121.407639 370.986694,124.012238 C370.959717,127.620201 370.941864,130.346268 370.924011,133.072342 C370.618500,136.089981 370.312988,139.107635 369.998016,142.986282 C369.958984,146.927490 369.929413,150.007706 369.899841,153.087906 C369.885468,153.777740 369.871094,154.467575 369.674805,155.852448 C369.348877,158.698029 369.204834,160.848587 369.060791,162.999130 C369.039154,163.439224 369.017517,163.879318 368.976196,165.103424 C368.937073,168.639999 368.917603,171.392563 368.898132,174.145142 C368.596191,175.840576 368.294281,177.536011 367.960541,180.021362 C367.645355,184.205719 367.361938,187.600159 367.078491,190.994598 C367.051422,191.435196 367.024353,191.875778 366.974976,193.081390 C366.932190,195.593460 366.911743,197.340515 366.891357,199.087585 C366.604156,200.483459 366.316956,201.879318 366.004883,204.074097 C365.947296,206.946930 365.914581,209.020828 365.881897,211.094742 C365.881897,211.094742 365.856537,211.412857 365.874023,211.568481 C365.275360,216.201462 364.659241,220.678787 364.072266,225.579666 C364.069916,226.444092 364.038422,226.884964 363.987732,228.088196 C363.374817,234.893768 362.781158,240.936966 362.187439,246.980164 C362.120636,248.369156 362.053833,249.758133 362.004700,251.563477 C361.630432,258.065308 361.238525,264.150757 360.835510,270.651062 C360.548553,272.463379 360.272675,273.860840 360.016724,275.621765 C359.948029,279.020447 359.859436,282.055634 359.733704,285.546936 C359.462799,287.099884 359.229065,288.196716 358.982178,290.082245 C358.943909,292.942841 358.918762,295.014771 358.893585,297.086670 C358.870361,298.079498 358.847107,299.072296 358.650879,300.753876 C358.941528,303.120026 359.405243,304.797424 359.868958,306.474823 C359.868927,306.474823 359.859711,306.970306 359.926910,307.209290 C359.994110,307.448303 359.992065,307.466156 359.624268,307.699829 C358.830841,309.121490 358.012299,310.319733 358.043030,311.495789 C358.248352,319.357513 358.634735,327.214569 358.962341,335.073120 C358.550659,347.372620 361.389709,359.117981 365.119110,370.696594 C365.564667,372.079895 366.511292,373.301788 367.483215,374.802612 C372.021729,386.991272 378.728333,396.477997 391.840759,400.203247 C408.097168,404.821716 431.287231,397.254883 442.022583,384.152557 C450.800507,373.439270 455.031860,361.129089 457.054138,347.768402 C457.655060,343.798492 460.248962,342.688171 466.393921,342.954865 C470.725037,343.142853 469.961182,345.988068 469.920166,348.560913 C469.860168,352.321777 469.690765,356.080902 469.855927,360.184998 C470.143860,360.529236 470.103027,360.542938 469.720276,360.660553 C468.466919,362.287506 467.319244,363.702728 466.769592,365.321106 C462.441254,378.065094 458.970856,391.157074 453.817383,403.551971 C444.184662,426.720123 430.170227,446.683624 407.928375,459.724030 C390.915131,469.698883 372.475891,473.437042 353.188385,470.024536 C344.207062,468.435486 335.713470,464.090118 326.718018,460.813263 C323.658783,458.057129 320.880310,455.481903 317.954041,452.627136 C316.884796,451.227631 315.963318,450.107666 314.917175,448.671692 C313.780396,447.270721 312.507141,446.333710 311.796021,445.078278 C303.554016,430.527130 298.072266,415.081360 298.087982,398.178894 C298.100830,384.368866 298.557373,370.553497 299.097778,356.751465 C299.578979,344.460205 300.245850,332.168762 301.187683,319.904785 C302.624481,301.196594 304.398102,282.514526 305.973907,263.816742 C307.396759,246.933746 308.677490,230.038589 310.143677,213.159470 C312.356750,187.682114 314.759521,162.220963 316.887787,136.736725 C317.368378,130.982315 317.051422,125.161308 317.084229,119.097992 C317.077942,118.091431 317.089020,117.357834 317.122437,116.175827 C317.119690,115.129631 317.094574,114.531837 316.978149,113.655899 C315.938690,113.261627 314.990601,113.145493 313.649048,113.023010 C307.422424,113.965271 301.605713,115.034279 295.752655,115.838554 C281.717957,117.767082 267.662231,119.542587 253.627258,121.469261 C252.203949,121.664658 250.864136,122.468147 249.485565,122.989441 C249.269196,122.975906 249.052628,122.970711 248.325989,122.784431 C241.468277,123.375290 235.136063,124.341087 228.767715,124.878448 C223.459915,125.326324 221.466339,127.999985 222.162872,133.067566 C222.117203,134.117325 222.071533,135.167068 222.012466,137.049759 C221.963470,139.955780 221.927887,142.028870 221.892303,144.101959 C221.611389,145.178314 221.330475,146.254684 221.026642,148.119034 C220.955048,151.651733 220.906357,154.396454 220.857666,157.141159 C220.827377,158.095032 220.797089,159.048904 220.591125,160.715088 C220.211914,163.278061 220.008331,165.128723 219.804749,166.979401 C219.554398,168.087128 219.304047,169.194870 219.082336,170.651962 C218.778397,174.383972 218.445786,177.766617 218.145218,181.571259 C218.134552,182.747162 218.091873,183.501038 218.027954,185.038208 C217.741577,188.207321 217.476456,190.593155 217.211334,192.978973 C217.163879,193.738403 217.116394,194.497849 217.051422,196.057861 C216.445389,203.563156 215.856873,210.267883 215.268356,216.972610 C215.206528,217.733521 215.144684,218.494431 215.059738,220.070435 C214.624161,227.915070 214.211700,234.944626 213.799225,241.974167 C213.559448,243.087601 213.319672,244.201019 213.056854,246.110062 C212.426254,253.929840 211.818680,260.954010 211.211121,267.978180 C211.156906,268.735657 211.102692,269.493103 211.031281,271.050659 C210.429810,277.891052 209.845535,283.931366 209.261261,289.971680 C209.196808,290.731110 209.132355,291.490540 209.041733,293.053558 C208.797180,295.771271 208.216293,297.737183 208.480072,299.582367 C208.675919,300.952393 209.967941,302.165710 210.771698,303.448822 C210.771698,303.448822 210.723328,303.576050 210.578186,303.795105 C210.272812,304.336121 210.112549,304.658020 209.952286,304.979950 C209.952286,304.979950 209.983963,304.939514 209.601166,305.023987 C208.548843,307.731598 207.879318,310.354736 207.209793,312.977844 C207.153137,314.052063 207.096497,315.126312 207.017105,317.006042 C206.574615,323.195435 206.154877,328.579285 205.735138,333.963135 C205.505005,334.762817 205.274857,335.562500 205.014648,337.085815 C204.391632,343.865936 203.798691,349.922394 203.205750,355.978851 C203.144089,356.729523 203.082443,357.480164 203.033432,358.606934 C202.106903,365.756378 201.167740,372.529694 200.222748,379.642822 C200.144135,381.047668 200.071365,382.112762 199.971970,383.975952 C199.870117,385.835114 199.794891,386.896179 199.719650,387.957245 C199.511276,388.454834 199.302902,388.952393 199.034515,390.135895 C198.871765,394.295929 198.769028,397.770081 198.707886,401.475037 C198.783783,402.019348 198.842789,402.328094 198.602036,402.782898 C197.796295,403.950867 197.315002,404.968048 196.643890,406.241150 C196.309402,407.323303 196.164719,408.149597 195.869904,409.315063 C195.499619,411.117828 195.279480,412.581421 195.059341,414.044983 C192.394547,424.654358 189.973938,435.332581 187.005127,445.856201 C183.006699,460.029419 177.551865,473.681915 167.920135,485.038452 C155.419037,499.778168 139.833313,507.612915 119.925484,504.295258 C118.616684,504.077118 117.278908,504.032928 115.213226,503.714111 C111.642502,502.675659 108.813148,501.830933 105.983795,500.986206 C105.983803,500.986206 105.995956,501.005188 106.001984,500.650146 C104.772804,498.790375 103.652245,497.171417 102.284286,495.799042 C91.251892,484.730988 85.488098,471.281677 90.516090,456.337097 C94.648018,444.055908 101.298149,432.360321 108.331566,421.364258 C132.975830,382.835358 153.004013,342.292267 165.140366,298.046997 C172.806366,270.099213 178.018356,241.697540 181.033493,212.888321 C182.380829,200.014694 184.021133,187.148621 184.708588,174.235474 C185.405029,161.153473 185.182434,148.016800 185.074783,134.906448 C185.063873,133.579330 183.072662,132.268494 182.000443,130.950104 z"/><path fill="#D88F03" opacity="1.000000" stroke="none" d=" M471.569000,84.780640 C471.225616,67.266815 471.214111,49.588066 471.294434,31.444191 C471.386230,30.979069 471.683167,30.979445 471.831268,30.976036 C472.322327,32.386486 472.956665,33.798946 472.963440,35.214413 C473.035675,50.302525 473.037140,65.391251 472.960266,80.479309 C472.953247,81.859871 472.270081,83.236992 471.569000,84.780640 z"/><path fill="#D69A18" opacity="1.000000" stroke="none" d=" M468.775360,28.811041 C468.485138,29.214523 468.015198,29.476086 467.269897,29.710100 C467.528229,29.344742 468.061920,29.006933 468.775360,28.811041 z"/><path fill="#D79910" opacity="1.000000" stroke="none" d=" M59.858551,205.128738 C59.960354,205.019440 60.002159,205.497986 60.023415,205.737183 C59.736408,205.799316 59.640434,205.553207 59.858551,205.128738 z"/><path fill="#D88B02" opacity="1.000000" stroke="none" d=" M182.117889,131.219284 C183.072662,132.268494 185.063873,133.579330 185.074783,134.906448 C185.182434,148.016800 185.405029,161.153473 184.708588,174.235474 C184.021133,187.148621 182.380829,200.014694 181.033493,212.888321 C178.018356,241.697540 172.806366,270.099213 165.140366,298.046997 C153.004013,342.292267 132.975830,382.835358 108.331566,421.364258 C101.298149,432.360321 94.648018,444.055908 90.516090,456.337097 C85.488098,471.281677 91.251892,484.730988 102.284286,495.799042 C103.652245,497.171417 104.772804,498.790375 106.013145,500.651703 C104.572685,500.674316 103.127083,500.340271 101.310219,499.937866 C99.082565,499.405518 96.967270,499.363617 95.411644,498.409332 C85.014481,492.031494 73.893753,486.439575 64.743752,478.573395 C59.455154,474.026886 57.438438,465.694214 53.892517,459.095978 C49.393833,450.724854 51.099438,441.685516 50.944141,432.381226 C52.577778,427.190887 54.236801,422.459900 55.957130,417.370361 C56.361958,416.239258 56.705482,415.466705 57.047466,414.365021 C58.040779,412.608887 59.035633,411.181854 60.038021,409.395538 C61.382145,406.954498 62.718735,404.872742 64.051979,402.414490 C65.045074,400.611511 66.041519,399.184998 67.043716,397.399231 C68.049805,395.615143 69.050133,394.190338 70.053802,392.406311 C70.716942,391.270905 71.376724,390.494690 72.042877,389.378784 C72.706726,388.263580 73.364197,387.488068 74.034943,386.375366 C75.092918,384.678986 76.137596,383.319855 77.270905,381.638641 C78.311432,379.873962 79.263344,378.431335 80.295563,376.658813 C82.611420,372.486908 84.846977,368.644897 87.069000,364.421814 C90.006996,359.334869 93.199463,354.761353 95.869232,349.900757 C108.907272,326.163849 117.739922,300.779205 124.990524,274.387573 C126.988174,269.029724 129.664825,264.213501 130.766403,259.060516 C134.303818,242.513199 137.752167,225.916306 140.291016,209.195206 C142.527069,194.468475 143.579819,179.557281 144.988525,164.711746 C145.702850,157.184250 146.145462,149.643646 150.371338,142.361588 C161.409378,140.256729 172.061722,138.642456 182.948624,136.992630 C182.948624,135.968796 182.948624,134.532242 182.948624,133.095688 C182.710876,132.559952 182.473114,132.024200 182.117889,131.219284 z"/><path fill="#D88B02" opacity="1.000000" stroke="none" d=" M106.178581,501.272186 C108.813148,501.830933 111.642502,502.675659 114.781143,503.701050 C115.062286,504.138184 115.034149,504.394592 114.968925,505.040344 C112.079018,504.139160 109.226189,502.848663 106.178581,501.272186 z"/><path fill="#D88B01" opacity="1.000000" stroke="none" d=" M317.101562,119.370956 C317.051422,125.161308 317.368378,130.982315 316.887787,136.736725 C314.759521,162.220963 312.356750,187.682114 310.143677,213.159470 C308.677490,230.038589 307.396759,246.933746 305.973907,263.816742 C304.398102,282.514526 302.624481,301.196594 301.187683,319.904785 C300.245850,332.168762 299.578979,344.460205 299.097778,356.751465 C298.557373,370.553497 298.100830,384.368866 298.087982,398.178894 C298.072266,415.081360 303.554016,430.527130 311.796021,445.078278 C312.507141,446.333710 313.780396,447.270721 314.637238,448.785278 C312.993103,448.470947 311.504211,447.727020 309.958069,446.754211 C309.600525,446.250641 309.300232,445.975891 308.999939,445.701141 C308.903687,445.807617 308.807465,445.914093 308.711243,446.020569 C309.134827,446.352417 309.558380,446.684235 309.999969,447.382812 C311.949982,454.216034 313.367065,455.120087 318.101807,452.906677 C320.880310,455.481903 323.658783,458.057129 326.653778,461.120728 C326.530334,462.132935 326.190399,462.656738 325.850464,463.180542 C324.494507,462.827362 323.138550,462.474152 321.432556,462.135925 C309.414368,456.572510 297.091461,451.938812 287.696899,442.675629 C278.195587,433.307159 270.097687,422.872833 266.767456,409.463074 C264.939056,402.100769 261.450928,394.936279 260.895966,387.519135 C259.907898,374.312805 260.408386,360.979675 260.619476,347.704865 C260.745941,339.750824 261.457855,331.803741 261.988251,323.858948 C263.247437,304.997803 264.559570,286.140228 265.841797,267.280579 C266.562012,256.687683 267.148956,246.084183 268.007019,235.502579 C268.971985,223.602875 270.162354,211.721313 271.277893,199.834030 C272.160889,190.424927 273.126190,181.023331 273.970398,171.610840 C275.229431,157.573578 276.433411,143.531235 277.597565,129.485809 C277.702881,128.214981 277.347595,126.905960 277.017914,125.260818 C277.015442,121.303642 274.875702,120.849312 272.002289,121.292450 C266.651154,122.117683 261.305237,122.996048 255.932816,123.653534 C254.030838,123.886299 252.057953,123.539436 249.801498,123.223312 C250.864136,122.468147 252.203949,121.664658 253.627258,121.469261 C267.662231,119.542587 281.717957,117.767082 295.752655,115.838554 C301.605713,115.034279 307.422424,113.965271 313.900696,113.225067 C315.386993,113.600342 316.228210,113.767197 317.069458,113.934044 C317.094574,114.531837 317.119690,115.129631 316.775635,115.997429 C304.754211,117.639824 293.088654,118.916939 281.472107,120.544388 C280.408936,120.693344 279.659851,123.084259 278.764893,124.434090 C283.451355,124.901253 287.061432,124.543205 290.632324,123.949448 C299.464935,122.480766 308.279663,120.904175 317.101562,119.370956 z"/><path fill="#DA9A05" opacity="1.000000" stroke="none" d=" M326.069946,463.437164 C326.190399,462.656738 326.530334,462.132935 326.934509,461.301636 C335.713470,464.090118 344.207062,468.435486 353.188385,470.024536 C372.475891,473.437042 390.915131,469.698883 407.928375,459.724030 C430.170227,446.683624 444.184662,426.720123 453.817383,403.551971 C458.970856,391.157074 462.441254,378.065094 466.769592,365.321106 C467.319244,363.702728 468.466919,362.287506 469.702179,360.648132 C470.055115,363.039703 470.043396,365.561310 469.953430,368.464417 C467.267548,376.708069 464.870880,384.647949 462.008820,392.416382 C455.886169,409.034790 448.347839,424.992920 437.082275,438.800629 C419.052582,460.898621 396.421692,473.930786 367.095276,474.182922 C352.399597,474.309265 338.656738,472.007629 326.069946,463.437164 z"/><path fill="#D88F03" opacity="1.000000" stroke="none" d=" M371.492615,117.829071 C371.449554,114.324707 371.476257,110.641899 372.137512,107.076775 C372.340607,105.981583 374.186279,104.566170 375.438049,104.383881 C394.819702,101.561409 414.230896,98.942978 433.627838,96.224113 C445.792358,94.519020 457.944458,92.725349 470.522308,90.958115 C471.590576,91.639580 472.238617,92.334351 472.895325,93.327438 C443.613892,97.674301 414.325470,101.735291 385.030334,105.747322 C382.729309,106.062462 380.217438,105.573250 378.109161,106.320358 C376.517395,106.884445 375.414032,108.826859 374.075775,110.545120 C373.307648,113.188263 372.557098,115.442085 371.492615,117.829071 z"/><path fill="#D88B01" opacity="1.000000" stroke="none" d=" M211.573212,267.938538 C211.818680,260.954010 212.426254,253.929840 213.076782,246.461090 C216.893082,250.877991 214.593674,256.349762 214.453156,261.530609 C214.395004,263.674561 212.820328,265.777374 211.573212,267.938538 z"/><path fill="#D88B01" opacity="1.000000" stroke="none" d=" M215.634583,216.925812 C215.856873,210.267883 216.445389,203.563156 217.072906,196.438232 C217.704437,196.729752 218.839066,197.469009 218.804535,198.148895 C218.505569,204.035385 218.025208,209.913864 217.487137,215.784485 C217.449860,216.191315 216.517120,216.516098 215.634583,216.925812 z"/><path fill="#D88B01" opacity="1.000000" stroke="none" d=" M214.118073,241.910248 C214.211700,234.944626 214.624161,227.915070 215.074951,220.452271 C215.733505,221.888748 217.016174,223.819717 216.850021,225.616730 C216.347198,231.054489 215.282593,236.440292 214.118073,241.910248 z"/><path fill="#D88B01" opacity="1.000000" stroke="none" d=" M203.576996,355.934723 C203.798691,349.922394 204.391632,343.865936 205.026138,337.405090 C205.671722,337.707886 206.829468,338.445953 206.791977,339.117310 C206.499069,344.361786 206.009064,349.596863 205.461395,354.822388 C205.419006,355.226868 204.473816,355.536743 203.576996,355.934723 z"/><path fill="#D88B01" opacity="1.000000" stroke="none" d=" M209.627380,289.926636 C209.845535,283.931366 210.429810,277.891052 211.048889,271.430420 C211.684219,271.716339 212.834869,272.452820 212.797974,273.124023 C212.510406,278.356384 212.026886,283.579590 211.486282,288.793427 C211.443771,289.203308 210.511993,289.521027 209.627380,289.926636 z"/><path fill="#D88B01" opacity="1.000000" stroke="none" d=" M206.121338,333.849731 C206.154877,328.579285 206.574615,323.195435 207.039917,317.409424 C207.586227,317.400116 208.555511,317.846527 208.517654,318.177856 C207.924225,323.372772 207.200928,328.552856 206.121338,333.849731 z"/><path fill="#D88B01" opacity="1.000000" stroke="none" d=" M210.814865,302.961121 C209.967941,302.165710 208.675919,300.952393 208.480072,299.582367 C208.216293,297.737183 208.797180,295.771271 209.054260,293.434875 C209.681320,296.166168 210.269684,299.319794 210.814865,302.961121 z"/><path fill="#D88B01" opacity="1.000000" stroke="none" d=" M207.576447,312.935791 C207.879318,310.354736 208.548843,307.731598 209.575775,305.020264 C209.269806,307.585938 208.606461,310.239838 207.576447,312.935791 z"/><path fill="#D88B01" opacity="1.000000" stroke="none" d=" M217.572876,192.937683 C217.476456,190.593155 217.741577,188.207321 218.048386,185.415802 C220.865860,187.694672 221.012299,190.327332 217.572876,192.937683 z"/><path fill="#D88B01" opacity="1.000000" stroke="none" d=" M210.153824,304.797546 C210.112549,304.658020 210.272812,304.336121 210.637604,303.828308 C210.679886,303.966705 210.517624,304.290955 210.153824,304.797546 z"/><path fill="#D88B01" opacity="1.000000" stroke="none" d=" M195.291107,414.121063 C195.279480,412.581421 195.499619,411.117828 196.185654,409.418457 C197.169785,409.873108 197.688034,410.563538 198.206268,411.253967 C198.194427,411.654114 198.182602,412.054291 198.109772,412.749573 C197.206802,413.428894 196.364838,413.813019 195.291107,414.121063 z"/><path fill="#F3CC1B" opacity="1.000000" stroke="none" d=" M193.718567,436.261536 C193.450928,438.143524 192.939713,440.293457 192.222565,442.738464 C192.502762,440.865540 192.988876,438.697510 193.718567,436.261536 z"/><path fill="#F3CC1B" opacity="1.000000" stroke="none" d=" M191.815811,443.238708 C191.827850,443.832428 191.621307,444.674469 191.210785,445.773926 C191.203629,445.183258 191.400436,444.335144 191.815811,443.238708 z"/><path fill="#D88F03" opacity="1.000000" stroke="none" d=" M359.197144,334.736938 C358.634735,327.214569 358.248352,319.357513 358.043030,311.495789 C358.012299,310.319733 358.830841,309.121490 359.621338,307.711090 C360.022430,313.310059 360.058685,319.131439 360.090881,325.407532 C359.868530,328.708374 359.650269,331.554565 359.197144,334.736938 z"/><path fill="#D88F03" opacity="1.000000" stroke="none" d=" M367.411499,190.858414 C367.361938,187.600159 367.645355,184.205719 367.982300,180.400620 C371.893677,183.674759 369.223236,187.182312 367.411499,190.858414 z"/><path fill="#D88F03" opacity="1.000000" stroke="none" d=" M370.258728,152.928619 C369.929413,150.007706 369.958984,146.927490 370.020630,143.423035 C373.336334,146.076691 372.488983,149.393402 370.258728,152.928619 z"/><path fill="#D88F03" opacity="1.000000" stroke="none" d=" M371.278198,132.916718 C370.941864,130.346268 370.959717,127.620201 371.007629,124.442917 C374.209351,126.713181 373.380402,129.705963 371.278198,132.916718 z"/><path fill="#D88F03" opacity="1.000000" stroke="none" d=" M369.166565,173.865448 C368.917603,171.392563 368.937073,168.639999 368.986267,165.433838 C372.622070,167.680008 370.899109,170.639175 369.166565,173.865448 z"/><path fill="#D88F03" opacity="1.000000" stroke="none" d=" M366.230896,210.947021 C365.914581,209.020828 365.947296,206.946930 366.009949,204.432526 C368.975220,206.042572 368.507202,208.363052 366.230896,210.947021 z"/><path fill="#D88F03" opacity="1.000000" stroke="none" d=" M369.394226,162.862045 C369.204834,160.848587 369.348877,158.698029 369.687225,156.197296 C369.830261,158.139725 369.778961,160.432343 369.394226,162.862045 z"/><path fill="#D88F03" opacity="1.000000" stroke="none" d=" M367.230988,198.947815 C366.911743,197.340515 366.932190,195.593460 366.982269,193.412506 C369.862732,194.666367 369.491455,196.662949 367.230988,198.947815 z"/><path fill="#D88B01" opacity="1.000000" stroke="none" d=" M222.325745,133.216766 C221.466339,127.999985 223.459915,125.326324 228.767715,124.878448 C235.136063,124.341087 241.468277,123.375290 248.163574,122.789673 C246.031601,123.968315 243.626205,125.278587 241.055847,125.861969 C236.908157,126.803345 232.601807,127.058159 228.470444,128.051834 C227.154800,128.368271 226.182190,130.110901 225.026108,131.851227 C225.018936,132.672348 225.038239,132.843155 225.057526,133.013962 C225.057526,133.013962 225.046616,133.032654 225.044525,133.046204 C224.191162,133.161835 223.339890,133.263901 222.325745,133.216766 z"/><path fill="#D5991A" opacity="1.000000" stroke="none" d=" M225.253082,132.904633 C225.038239,132.843155 225.018936,132.672348 224.995895,132.243500 C225.172760,132.008377 225.353333,132.031326 225.801987,132.106018 C225.894638,132.401199 225.687500,132.613708 225.253082,132.904633 z"/><path fill="#D88B01" opacity="1.000000" stroke="none" d=" M221.216568,156.974319 C220.906357,154.396454 220.955048,151.651733 221.040909,148.456879 C224.262772,150.769714 223.379120,153.762604 221.216568,156.974319 z"/><path fill="#D88B01" opacity="1.000000" stroke="none" d=" M222.239120,143.951843 C221.927887,142.028870 221.963470,139.955780 222.034698,137.443573 C224.991394,139.061676 224.485550,141.378845 222.239120,143.951843 z"/><path fill="#D88B01" opacity="1.000000" stroke="none" d=" M220.162689,166.875916 C220.008331,165.128723 220.211914,163.278061 220.611923,161.072540 C220.712448,162.735947 220.616531,164.754181 220.162689,166.875916 z"/><path fill="#D88F03" opacity="1.000000" stroke="none" d=" M362.561768,246.934326 C362.781158,240.936966 363.374817,234.893768 364.000305,228.419769 C364.184235,228.054108 364.397797,228.075577 364.479584,228.190689 C366.578033,231.145081 365.497009,244.141815 362.561768,246.934326 z"/><path fill="#D88F03" opacity="1.000000" stroke="none" d=" M359.241333,296.939697 C358.918762,295.014771 358.943909,292.942841 359.002380,290.430725 C361.945526,292.036163 361.517487,294.353394 359.241333,296.939697 z"/><path fill="#D88F03" opacity="1.000000" stroke="none" d=" M359.894531,306.039001 C359.405243,304.797424 358.941528,303.120026 358.662354,301.126190 C359.204620,302.407562 359.562347,304.005371 359.894531,306.039001 z"/><path fill="#D88B01" opacity="1.000000" stroke="none" d=" M198.666290,401.244202 C198.769028,397.770081 198.871765,394.295929 199.024063,390.410278 C203.112869,392.353790 199.249588,395.687592 200.172546,398.861938 C200.225327,399.685272 200.224075,400.082001 199.813568,400.803497 C199.158310,401.166931 198.912308,401.205566 198.666290,401.244202 z"/><path fill="#D88B01" opacity="1.000000" stroke="none" d=" M200.062744,387.886078 C199.794891,386.896179 199.870117,385.835114 199.985580,384.376404 C202.315979,385.043152 202.572876,386.308960 200.062744,387.886078 z"/><path fill="#D5991A" opacity="1.000000" stroke="none" d=" M198.707886,401.475037 C198.912308,401.205566 199.158310,401.166931 199.777664,401.100006 C199.668228,404.269043 199.185440,407.466370 198.454468,410.958832 C197.688034,410.563538 197.169785,409.873108 196.335800,409.079285 C196.164719,408.149597 196.309402,407.323303 196.997696,406.145172 C198.003036,404.739594 198.464752,403.685852 198.926483,402.632111 C198.842789,402.328094 198.783783,402.019348 198.707886,401.475037 z"/><path fill="#F7C908" opacity="1.000000" stroke="none" d=" M182.535004,133.110672 C182.948624,134.532242 182.948624,135.968796 182.948624,136.992630 C172.061722,138.642456 161.409378,140.256729 150.378876,141.981003 C147.844009,138.802689 149.274979,137.122787 152.641693,136.625580 C159.168793,135.661682 165.712494,134.802124 172.261383,133.997467 C175.534348,133.595322 178.833878,133.409378 182.535004,133.110672 z"/><path fill="#F7C908" opacity="1.000000" stroke="none" d=" M317.084229,119.097992 C308.279663,120.904175 299.464935,122.480766 290.632324,123.949448 C287.061432,124.543205 283.451355,124.901253 278.764893,124.434090 C279.659851,123.084259 280.408936,120.693344 281.472107,120.544388 C293.088654,118.916939 304.754211,117.639824 316.753265,116.445831 C317.089020,117.357834 317.077942,118.091431 317.084229,119.097992 z"/><path fill="#DEA004" opacity="1.000000" stroke="none" d=" M310.015320,446.983063 C311.504211,447.727020 312.993103,448.470947 314.761932,449.101288 C315.963318,450.107666 316.884796,451.227631 317.954041,452.627136 C313.367065,455.120087 311.949982,454.216034 310.008728,447.374878 C309.999512,447.000214 310.015320,446.983063 310.015320,446.983063 z"/><path fill="#D88B01" opacity="1.000000" stroke="none" d=" M198.602020,402.782898 C198.464752,403.685852 198.003036,404.739594 197.187500,405.889282 C197.315002,404.968048 197.796295,403.950867 198.602020,402.782898 z"/><path fill="#D5991A" opacity="1.000000" stroke="none" d=" M316.978119,113.655899 C316.228210,113.767197 315.386993,113.600342 314.294128,113.231430 C314.990601,113.145493 315.938690,113.261627 316.978119,113.655899 z"/><path fill="#DEA004" opacity="1.000000" stroke="none" d=" M309.990723,447.008148 C309.558380,446.684235 309.134827,446.352417 308.711243,446.020569 C308.807465,445.914093 308.903687,445.807617 308.999939,445.701141 C309.300232,445.975891 309.600525,446.250641 309.958069,446.754211 C310.015320,446.983063 309.999512,447.000214 309.990723,447.008148 z"/></svg>