<?xml version="1.0" encoding="utf-8"?>
<svg version="1.1" id="Layer_1" xmlns="http://www.w3.org/2000/svg" x="0px" y="0px" width="100%" viewBox="0 0 512 512" enable-background="new 0 0 512 512">
  <path fill="#D8950E" opacity="1.000000" stroke="none" d="M 185.045 454.022 C 184.177 444.644 184.97 434.43 186.804 419.778 C 190.281 420.708 192.72 426.073 195.157 431.437 C 192.339 438.689 189.522 445.935 185.045 454.022 Z" style="stroke-width: 1;"/>
  <path fill="#D8950E" opacity="1.000000" stroke="none" d="M 194.225 417.747 C 193.638 409.493 194.174 400.504 195.416 387.607 C 197.77 388.426 199.421 393.148 201.071 397.869 C 199.164 404.252 197.256 410.629 194.225 417.747 Z" style="stroke-width: 1;"/>
  <path fill="#D8950E" opacity="1.000000" stroke="none" d="M 192.54 427.65 C 192.123 422.305 192.504 416.484 193.386 408.133 C 195.058 408.663 196.231 411.721 197.403 414.778 C 196.048 418.911 194.693 423.041 192.54 427.65 Z" style=""/>
  <path fill="#D8950E" opacity="1.000000" stroke="none" d="M 203.795 387.007 C 201.2 383.252 199.536 379.249 205.649 375.795 C 205.586 379.324 204.974 383.023 203.795 387.007 Z" style=""/>
  <path fill="#D8950E" opacity="1.000000" stroke="none" d="M 203.222 347.177 C 202.714 340.685 203.178 333.615 204.252 323.471 C 206.287 324.115 207.714 327.829 209.141 331.542 C 207.492 336.563 205.842 341.579 203.222 347.177 Z" style="stroke-width: 1;"/>
  <path opacity="1.000000" stroke="none" d="M 208.097 351.544 C 207.425 351.562 206.899 351.291 206.925 351.082 C 207.6 345.628 208.333 340.18 209.392 334.661 C 209.32 340.154 208.91 345.718 208.097 351.544 Z" style="fill: rgb(216, 140, 3);"/>
  <path fill="#D8950E" opacity="1.000000" stroke="none" d="M 212.987 291.738 C 212.844 287.664 213.334 282.797 214.834 277.514 C 215.105 281.713 214.364 286.33 212.987 291.738 Z" style=""/>
  <path fill="#D8950E" opacity="1.000000" stroke="none" d="M 212.849 297.477 C 212.303 293.648 212.623 289.432 213.457 284.852 C 213.888 288.689 213.799 292.89 212.849 297.477 Z" style=""/>
  <path fill="#D8950E" opacity="1.000000" stroke="none" d="M 205.571 327.506 C 205.109 319.633 205.531 311.06 206.509 298.76 C 208.362 299.541 209.663 304.045 210.962 308.547 C 209.46 314.634 207.958 320.717 205.571 327.506 Z" style="stroke-width: 1;"/>
  <path fill="#D8950E" opacity="1.000000" stroke="none" d="M 208.378 305.951 C 207.881 295.768 208.335 284.677 209.388 268.766 C 211.382 269.776 212.782 275.602 214.18 281.427 C 212.563 289.301 210.947 297.17 208.378 305.951 Z" style="stroke-width: 1;"/>
  <path opacity="1.000000" stroke="none" d="M 209.98 269.089 C 211.702 268.71 213.425 268.331 215.578 267.84 C 215.637 271.028 215.268 274.326 214.81 278.179 C 213.355 276.597 211.99 274.461 210.237 271.635 C 209.893 270.329 209.936 269.709 209.98 269.089 Z" style="fill: rgb(216, 140, 4);"/>
  <path opacity="1.000000" stroke="none" d="M 210.727 243.632 C 212.935 242.109 215.144 240.585 217.809 238.864 C 217.921 242.929 217.578 247.189 216.918 251.92 C 214.873 250.428 213.145 248.465 210.928 245.912 C 210.533 244.757 210.631 244.194 210.727 243.632 Z" style="fill: rgb(216, 140, 4);"/>
  <path fill="#D8950E" opacity="1.000000" stroke="none" d="M 210.835 264.968 C 210.418 259.623 210.799 253.802 211.681 245.451 C 213.353 245.981 214.526 249.039 215.698 252.096 C 214.343 256.229 212.988 260.359 210.835 264.968 Z" style="stroke-width: 1;"/>
  <path fill="#D8950E" opacity="1.000000" stroke="none" d="M 213.507 236.553 C 213.09 231.208 213.471 225.387 214.353 217.036 C 216.025 217.566 217.198 220.624 218.37 223.681 C 217.015 227.814 215.66 231.944 213.507 236.553 Z" style="stroke-width: 1;"/>
  <path opacity="1.000000" stroke="none" d="M 222.394 181.75 C 220.424 179.245 218.584 176.241 216.139 172.707 C 215.612 171.65 215.69 171.125 215.769 170.599 C 218.204 169.186 220.638 167.772 223.561 166.171 C 223.54 171.072 223.031 176.162 222.394 181.75 Z" style="fill: rgb(216, 140, 3);"/>
  <path opacity="1.000000" stroke="none" d="M 217.21 191.259 C 216.793 185.914 217.174 180.093 218.056 171.742 C 219.728 172.272 220.901 175.33 222.073 178.387 C 220.718 182.52 219.363 186.65 217.21 191.259 Z" style="stroke-width: 1; fill: rgb(216, 140, 3);"/>
  <path fill="#D8950E" opacity="1.000000" stroke="none" d="M 218.226 163.391 C 217.552 152.342 218.167 140.31 219.592 123.048 C 222.293 124.144 224.188 130.465 226.081 136.784 C 223.892 145.327 221.703 153.864 218.226 163.391 Z" style="stroke-width: 1;"/>
  <path opacity="1.000000" stroke="none" d="M 222.981 171.033 C 222.39 164.855 221.936 158.071 221.478 150.617 C 222.713 148.623 223.952 147.301 225.621 145.783 C 225.075 153.867 224.096 162.148 222.981 171.033 Z" style="fill: rgb(216, 140, 3);"/>
  <path opacity="1.000000" stroke="none" d="M 357.234 420.988 C 352.39 408.606 356.816 395.122 367.061 375.777 C 386.481 377.005 400.106 384.089 413.717 391.17 C 397.98 400.744 382.24 410.311 357.234 420.988 Z" style="stroke-width: 1; fill: rgb(216, 140, 3);"/>
  <path opacity="1.000000" stroke="none" d=" M127.196976,263.963776 C128.931076,255.708557 130.833206,247.484253 132.357941,239.190536 C134.393204,228.119812 136.340088,217.024780 137.949860,205.885986 C139.823441,192.921753 141.480103,179.918915 142.860611,166.893585 C143.612656,159.798126 143.597687,152.621368 143.948868,145.045349 C130.604874,148.741745 119.195236,154.945404 108.773849,163.583954 C94.805710,175.162491 87.043922,190.742630 79.281380,206.431061 C77.438820,210.154984 75.652893,212.479416 70.710411,213.488876 C62.184418,215.230225 54.987896,214.929642 47.454914,210.054565 C39.691315,205.030243 31.105591,201.274612 22.870625,196.981049 C19.468445,195.207199 16.347080,188.370605 17.601543,184.870834 C27.469881,157.339554 36.511318,129.464783 47.636009,102.448776 C54.210377,86.483109 66.489883,74.127655 81.931404,65.546883 C95.486214,58.014538 109.408958,51.467842 124.822784,48.562271 C139.231018,45.846264 153.595947,42.897396 167.964417,39.974792 C176.703934,38.197147 185.365662,35.991768 194.149902,34.491158 C204.624603,32.701759 215.193390,31.463718 225.720657,29.981468 C236.080719,28.522764 246.435532,27.026127 256.800629,25.604324 C265.864380,24.361029 274.944031,23.233706 284.007690,21.989880 C291.943146,20.900885 299.860443,19.679178 307.796204,18.592552 C316.860321,17.351418 325.944244,16.253389 335.004578,14.986052 C345.367676,13.536491 355.707275,11.919127 366.070160,10.468232 C374.821808,9.242927 383.608246,8.260759 392.349884,6.971565 C402.302368,5.503801 412.222992,3.819437 422.151184,2.190991 C422.364777,2.155953 422.502594,1.658781 422.337891,1.188600 C428.021149,1.000000 434.042297,1.000000 440.531738,0.999992 C443.582153,2.983454 445.986908,5.273344 448.781036,6.890553 C455.973755,11.053673 463.204895,15.199358 470.695557,18.776447 C474.083191,20.394192 475.663177,22.191946 474.879913,26.726906 C474.791321,49.204540 474.817841,70.792496 474.844330,92.380455 C475.239258,99.543854 475.188904,99.177223 468.580231,100.084862 C456.932739,101.684532 445.380005,103.968796 433.737610,105.612251 C423.789124,107.016586 413.751617,107.780647 403.788513,109.093643 C394.606964,110.303650 385.472076,111.867340 375.742859,113.679977 C374.034973,115.415268 372.900848,116.745811 371.763672,117.604797 C371.773895,115.300797 371.947235,113.452705 371.769928,111.638901 C371.269958,106.523849 373.215851,104.135971 378.615479,103.629860 C387.390015,102.807411 396.089355,101.199745 404.829285,99.987419 C424.783356,97.219574 444.733215,94.417412 464.707306,91.801361 C469.215118,91.210968 471.319763,89.701698 471.223480,84.597084 C470.909302,67.941078 471.043243,51.274174 471.203583,34.613373 C471.243835,30.432642 470.069214,29.120478 465.674744,29.758068 C442.132141,33.173840 418.542389,36.262894 394.979645,39.541927 C370.271790,42.980320 345.560822,46.401920 320.878754,50.018719 C287.294403,54.940018 253.606949,59.318119 220.209503,65.301170 C195.513245,69.725433 170.921463,75.331825 146.800262,82.221947 C113.457504,91.746155 90.873505,113.246559 80.620117,147.073624 C76.420128,160.929840 71.176659,174.470032 66.395363,188.149628 C64.801811,192.708878 63.113205,197.235657 61.575481,201.813385 C60.641514,204.593750 61.563393,205.760818 64.701736,205.599594 C69.751213,205.340210 73.466637,203.673508 75.611542,198.670792 C77.772957,193.629578 80.415764,188.777542 83.085953,183.975113 C89.443169,172.541397 97.045914,162.081818 107.332748,153.780243 C128.931671,136.349731 154.297699,131.151215 181.221573,130.839371 C185.500778,130.789810 186.200180,133.107742 186.019775,136.569260 C184.937576,157.333405 184.907043,178.214615 182.570755,198.835281 C179.690536,224.256851 175.729431,249.626633 170.746658,274.723206 C162.708008,315.211243 147.747437,353.323029 127.439941,389.244080 C117.116920,407.504089 106.154350,425.403717 95.411484,443.424896 C80.343353,468.701782 94.170197,495.048248 112.615875,502.165619 C125.289558,507.055817 137.375000,505.797943 149.636658,499.526611 C165.836304,491.241089 175.141541,477.725098 181.656738,461.594238 C184.146851,455.429016 186.449860,449.188202 189.103577,442.876770 C189.512421,441.770172 189.655823,440.768616 189.808716,439.366119 C191.314468,431.652618 192.810699,424.340057 194.542542,416.984436 C195.178345,416.568695 195.578568,416.196075 195.978790,415.823456 C195.632614,415.547607 195.286423,415.271759 195.004974,414.596619 C197.028351,401.882965 199.541183,389.626740 200.840210,377.243164 C204.516891,342.193756 207.696487,307.092194 211.355164,272.172424 C212.705154,273.889038 213.771866,275.444366 214.838577,276.999695 C214.883911,277.440491 214.929260,277.881287 214.620117,278.840149 C214.124557,281.576111 213.983459,283.794006 213.842361,286.011871 C213.885513,286.758972 213.928665,287.506104 213.700317,288.844299 C213.299713,291.994843 213.170609,294.554291 213.041504,297.113739 C213.041504,297.113739 212.984360,297.562439 212.622223,297.975891 C212.122375,301.936249 211.984634,305.483093 211.846909,309.029968 C211.881271,309.193237 211.915634,309.356506 211.596466,309.975708 C211.179260,313.664703 211.115585,316.897766 211.051910,320.130798 C211.025711,321.164429 210.999527,322.198090 210.617172,323.807678 C210.119110,327.252106 209.977219,330.120575 209.835297,332.989044 C209.880280,333.433777 209.925247,333.878540 209.602753,334.718658 C208.594559,340.222015 207.945084,345.328918 207.346420,350.441833 C207.323425,350.638214 207.789902,350.891937 208.028305,351.118958 C208.009964,351.841400 207.991623,352.563843 207.708359,353.734924 C207.575272,354.789886 207.707108,355.396240 207.838959,356.002563 C207.880981,356.443298 207.922989,356.884003 207.596756,357.844818 C204.094559,363.353363 204.530487,368.651794 205.868484,374.028564 C205.903702,374.773682 205.938934,375.518829 205.575043,376.764587 C201.806091,379.827118 202.814545,382.951111 204.041306,386.103119 C204.019196,388.112091 203.997070,390.121063 203.688477,392.659424 C203.298279,393.840424 203.194580,394.491974 203.090897,395.143555 C202.721588,397.163361 202.352249,399.183167 201.649597,401.746948 C201.246643,403.565216 201.177017,404.839539 201.107391,406.113831 C201.063782,406.838562 201.020172,407.563293 200.628143,408.824219 C200.141800,411.248688 200.003906,413.137024 199.866028,415.025330 C199.569931,416.766815 199.273834,418.508301 198.646301,420.779663 C198.163177,422.545807 198.011475,423.782135 197.859772,425.018433 C197.896652,425.466797 197.933533,425.915131 197.761169,426.875946 C197.370743,427.637909 197.201569,427.895264 197.044388,428.160522 C197.044388,428.160522 197.008591,428.569702 196.880737,428.892456 C196.668137,429.499268 196.705811,429.770172 196.865891,430.027924 C196.313629,432.789581 195.761383,435.551270 194.815048,438.759399 C194.318542,439.834534 194.216095,440.463135 194.113678,441.091766 C190.804886,450.494507 187.496109,459.897247 183.738663,469.827393 C179.553009,477.271820 175.816010,484.188843 172.079041,491.105865 C165.200714,500.230896 156.224731,506.426880 145.522675,510.276581 C144.356857,510.695953 143.404694,511.709290 142.676727,512.723572 C134.645767,513.000000 126.291534,513.000000 117.468658,513.000000 C114.681427,511.667023 112.388313,510.287292 110.040085,509.008820 C96.500946,501.637390 82.647087,494.786102 69.490540,486.787048 C57.641880,479.583160 52.671543,467.213379 49.150417,454.464172 C48.038158,450.436981 48.372673,446.010193 48.403618,441.099609 C50.119274,435.358521 50.675846,429.880096 52.992611,425.290100 C58.591164,414.198090 65.047432,403.540741 71.069519,392.659241 C72.249298,390.527435 73.030563,388.175140 73.995644,385.924530 C73.995644,385.924530 74.001572,386.007416 74.285782,385.887146 C75.364838,384.153564 76.159691,382.540253 76.954544,380.926971 C76.954552,380.926971 76.975815,380.986145 77.285538,380.896606 C78.379005,379.178986 79.162750,377.550903 79.946487,375.922821 C79.946487,375.922821 79.969093,375.982361 80.283615,375.864349 C81.107216,374.696259 81.616302,373.646149 82.125397,372.596069 C82.125397,372.596069 82.049042,372.472443 82.419693,372.251404 C83.854736,369.994629 84.919136,367.958923 85.983536,365.923218 C85.983528,365.923218 86.009918,366.004761 86.200584,365.814514 C86.590889,365.056610 86.790527,364.488983 86.990166,363.921356 C86.990166,363.921356 86.997108,364.000275 87.277069,363.881073 C88.838722,361.008423 90.120422,358.255005 91.402130,355.501556 C91.402130,355.501556 91.795074,355.556580 92.043274,355.541321 C93.680260,353.265564 95.184776,351.067413 96.440071,348.735107 C110.229027,323.115356 119.230797,295.674561 127.079788,267.804810 C127.416740,266.608337 127.171173,265.247864 127.196976,263.963776 z" style="fill: rgb(216, 140, 3);"/>
  <path fill="#D88C03" opacity="1.000000" stroke="none" d=" M258.127502,356.713959 C258.127502,356.713959 258.059113,356.375580 258.224976,355.814209 C258.664581,346.911041 258.938324,338.569183 259.212097,330.227356 C259.787903,318.694550 260.292664,307.157654 260.960876,295.630219 C261.548706,285.489105 262.201660,275.348877 263.037537,265.225739 C264.241272,250.647522 265.676941,236.088608 266.935181,221.514694 C267.699982,212.656342 268.215515,203.775986 269.024323,194.922058 C270.249207,181.513214 271.677124,168.122971 272.925079,154.716110 C273.410675,149.499207 273.642944,144.258682 273.988373,139.028778 C274.235046,135.294678 274.477936,131.560333 274.756134,127.312759 C259.091736,129.556290 243.522217,131.786224 227.270966,133.956100 C226.336288,135.936752 226.083328,137.977493 225.830383,140.018219 C225.869156,140.181534 225.907944,140.344864 225.652695,140.877930 C225.518188,142.164688 225.677704,143.081726 225.837250,143.998749 C225.881516,144.747238 225.925797,145.495712 225.632019,146.749542 C224.527023,148.169922 223.760101,149.084961 222.747238,150.117950 C222.018661,150.490143 221.536011,150.744370 221.021759,150.551941 C221.459518,143.399475 221.928894,136.693680 222.573120,129.883270 C222.812454,129.177795 222.876953,128.576950 223.079865,127.637817 C225.138733,126.491722 226.993805,125.234299 228.989517,124.944168 C255.189011,121.135376 281.411987,117.488503 307.620941,113.744194 C318.152893,112.239563 318.748199,112.809402 317.845581,123.514038 C315.889832,146.709106 314.034271,169.912613 312.084839,193.108231 C310.051971,217.296463 307.811768,241.468140 305.927399,265.667725 C303.784912,293.182190 301.913971,320.717957 299.972198,348.247803 C299.340210,357.208160 298.786224,366.175323 298.319336,375.145782 C297.327026,394.210541 297.264954,413.227783 304.967834,431.212646 C313.845306,451.940186 328.267334,466.535889 351.398529,470.074127 C379.908539,474.435211 404.844025,466.352478 425.765594,446.593597 C441.898834,431.356903 451.897552,412.045898 459.052399,391.480652 C463.733368,378.026123 466.316559,363.830200 469.566498,349.902679 C470.023224,347.945496 469.681702,344.645233 468.402252,343.653625 C464.328949,340.496796 457.874512,343.965179 456.956665,349.177795 C453.188324,370.577881 444.468536,388.570465 422.985474,397.509705 C400.901245,406.699097 376.231812,401.424683 368.824493,376.148834 C389.256989,373.078400 404.674194,363.593506 412.674652,344.392395 C415.469269,337.685211 416.976471,330.447693 419.216156,323.498962 C419.796082,321.699585 420.681000,318.805878 421.837280,318.586884 C427.513397,317.511719 433.112335,314.307556 439.163788,318.171478 C444.462708,321.554840 450.190186,324.308075 455.875641,327.032257 C460.495392,329.245789 465.333466,331.003632 470.074738,332.963562 C470.074738,332.963562 470.013977,332.978546 470.133423,333.252319 C471.780853,334.694641 473.308777,335.863190 474.836731,337.031738 C475.889771,352.298218 472.361328,366.992523 468.658478,381.547363 C465.097870,395.542969 459.754608,408.961090 453.103607,421.850952 C441.663696,444.022064 425.831116,461.758026 402.941711,472.547455 C385.542603,480.748932 367.427582,481.886230 348.703217,478.414032 C336.328186,476.119232 326.617401,468.369812 315.715790,463.083466 C308.544830,459.606201 301.777405,455.299377 294.813385,451.392273 C282.459625,444.461243 274.749969,433.262634 268.273804,421.310150 C262.123535,409.959167 258.280945,397.695343 258.157745,383.882202 C258.184509,382.469055 258.104553,381.737457 258.095093,380.565186 C258.124176,377.747070 258.082733,375.369629 258.076904,372.746094 C258.112518,372.499939 258.040833,372.007721 258.102966,371.553223 C258.125946,367.744110 258.086823,364.389465 258.149414,360.793213 C258.177704,359.700012 258.104279,358.848450 258.063477,357.676788 C258.106537,357.142456 258.117035,356.928223 258.127502,356.713959 z"/>
  <path fill="#D69412" opacity="1.000000" stroke="none" d="M 353.923 300.27 C 356.863 301.424 359.806 302.579 363.479 304.074 C 363.592 296.133 362.974 287.854 362.2 277.991 C 359.661 277.585 357.278 278.761 354.15 281.864 C 353.577 289.279 353.75 294.774 353.923 300.27 Z" style="stroke-width: 1; transform-box: fill-box; transform-origin: 50% 50%;" transform="matrix(-1, 0, 0, -1, -0.000028, 0.000029)"/>
  <path fill="#D69412" opacity="1.000000" stroke="none" d="M 469.921 334.665 C 465.318 333.035 460.464 331.278 455.83 329.066 C 450.125 326.344 444.379 323.593 439.063 320.211 C 432.991 316.351 427.374 319.552 421.679 320.627 C 420.519 320.845 419.631 323.737 419.049 325.535 C 416.802 332.479 415.29 339.711 412.487 346.414 C 404.459 365.603 388.992 375.08 368.264 377.94 C 365.633 372.521 363.147 367.391 361.823 361.979 C 356.747 341.23 357.3 320.058 357.797 298.926 C 357.843 296.986 358.709 295.066 359.515 293.009 C 361.05 291.581 362.265 290.282 363.48 288.981 C 362.878 301.971 361.341 315.001 361.913 327.94 C 362.613 343.8 363.67 359.84 370.374 375.051 C 380.061 373.651 388.875 370.692 396.436 363.966 C 409.216 352.597 414.208 337.781 416.977 321.665 C 417.277 319.921 419.726 317.734 421.595 317.204 C 431.581 314.371 440.509 317.339 449.106 322.593 C 454.012 325.592 459.513 327.61 464.622 330.303 C 466.52 331.303 468.063 332.972 469.921 334.665 Z" style=""/>
  <path opacity="1.000000" stroke="none" d=" M374.842316,130.001007 C374.884430,130.447845 374.926575,130.894669 374.610168,131.871765 C372.501648,135.081818 372.127319,137.657440 374.827118,140.000198 C374.548279,141.421402 374.269440,142.842606 373.667297,144.874298 C371.723480,147.785721 371.181763,150.004990 373.835938,151.982269 C373.880005,153.381119 373.924042,154.779968 373.611176,156.784546 C373.113831,159.608734 372.973419,161.827179 372.832977,164.045624 C372.877869,167.064026 372.922760,170.082428 372.616821,173.731216 C372.120667,176.255478 371.975342,178.149353 371.830048,180.043228 C371.876953,182.067657 371.923889,184.092102 371.612915,186.734634 C369.853241,189.237717 368.451477,191.122696 367.028137,192.559586 C367.768860,179.511673 368.511871,166.910645 369.300262,154.312454 C369.828888,145.865753 370.421875,137.423096 371.311462,129.047989 C372.705322,129.411911 373.773804,129.706451 374.842316,130.001007 z" style="fill: rgb(216, 140, 3);"/>
  <path fill="#D88C04" opacity="1.000000" stroke="none" d=" M368.080750,229.065170 C368.044067,231.748123 368.007416,234.431061 367.620667,237.722397 C365.852264,239.559296 364.433960,240.787796 362.994934,241.567200 C363.306030,236.480469 363.564545,231.836227 363.984650,227.206619 C364.929871,216.790634 365.955231,206.381927 367.340332,195.974274 C368.778076,196.016632 369.823425,196.054962 370.868805,196.093292 C370.903687,196.520248 370.938568,196.947189 370.614380,197.887787 C370.112732,200.945740 369.970154,203.490067 369.827515,206.034378 C369.873718,208.395065 369.919952,210.755753 369.604218,213.752014 C366.110504,219.062912 367.247559,224.076065 368.080750,229.065170 z"/>
  <path fill="#D88C04" opacity="1.000000" stroke="none" d="M 363.417 285.523 C 362.134 287.253 360.923 288.553 359.419 289.551 C 359.891 277.829 360.655 266.408 361.752 255.058 C 363.173 255.424 364.263 255.72 365.353 256.015 C 365.397 257.07 365.442 258.125 365.134 259.739 C 364.637 261.891 364.493 263.484 364.348 265.077 C 364.394 267.104 364.44 269.131 364.131 271.766 C 363.634 274.276 363.491 276.176 363.349 278.076 C 363.395 280.415 363.441 282.754 363.417 285.523 Z"/>
  <path fill="#D88C04" opacity="1.000000" stroke="none" d="M 219.542 215.896 C 219.577 216.059 219.612 216.222 219.298 216.752 C 217.601 217.698 216.252 218.277 214.899 218.443 C 215.851 207.316 216.807 196.603 218.084 185.949 C 218.714 189.383 219.192 192.754 219.293 196.135 C 219.488 202.719 219.471 209.309 219.542 215.896 Z"/>
  <path fill="#D88C04" opacity="1.000000" stroke="none" d=" M216.845764,251.022308 C216.888351,251.458527 216.930939,251.894745 216.688171,252.950668 C216.219406,257.052460 216.036026,260.534546 215.852631,264.016632 C215.892868,265.400909 215.933090,266.785156 215.573303,268.660706 C213.826965,269.428345 212.480652,269.704651 211.165314,269.569885 C211.846878,261.445221 212.497467,253.731644 213.434540,246.152466 C214.762619,247.865341 215.804184,249.443817 216.845764,251.022308 z"/>
  <path opacity="1.000000" stroke="none" d="M 219.494 215.528 C 219.35 209.37 219.366 202.78 219.171 196.196 C 219.071 192.815 218.593 189.444 217.941 185.63 C 217.654 184.433 217.71 183.676 218.085 182.876 C 219.741 182.202 221.079 181.572 222.417 180.941 C 221.467 192.327 220.517 203.713 219.494 215.528 Z" style="fill: rgb(216, 140, 4);"/>
  <path fill="#D88C04" opacity="1.000000" stroke="none" d=" M217.847015,239.016876 C217.847031,239.016876 217.953171,239.498749 217.625885,239.898087 C215.967117,241.523636 214.635605,242.749847 213.313782,243.566223 C213.912140,236.109009 214.500824,229.061646 215.434906,222.085144 C216.301086,223.668488 217.146255,225.152969 217.279831,226.698929 C217.633362,230.790695 217.678909,234.909088 217.847015,239.016876 z"/>
  <path opacity="1.000000" stroke="none" d="M 373.062 150.381 C 368.132 150.744 363.505 150.031 357.393 148.148 C 357.085 138.86 358.263 130.745 359.437 122.63 C 364.35 119.412 369.263 116.197 375.609 112.801 C 375.817 124.852 374.591 137.079 373.062 150.381 Z" style="fill: rgb(216, 140, 3);"/>
  <path fill="#D88C04" opacity="1.000000" stroke="none" d="M 220.957 150.999 C 221.414 150.744 221.872 150.49 222.565 150.582 C 223.067 155.625 223.333 160.32 223.6 165.016 C 223.633 165.182 223.666 165.348 223.387 165.923 C 221.785 167.548 220.495 168.763 219.202 169.563 C 219.785 163.098 220.371 157.048 220.957 150.999 Z" style=""/>
  <path opacity="1.000000" stroke="none" d="M 217.768 240.055 C 217.48 235.626 217.429 230.681 217.026 225.768 C 216.875 223.912 215.913 222.13 214.896 219.771 C 214.537 218.32 214.601 217.409 214.666 216.498 C 216.202 215.802 217.738 215.107 219.607 214.265 C 219.249 222.596 218.556 231.074 217.768 240.055 Z" style="fill: rgb(216, 140, 4);"/>
  <path fill="#EBC780" opacity="1.000000" stroke="none" d=" M259.139679,330.635864 C258.938324,338.569183 258.664581,346.911041 258.307861,355.662781 C258.145905,348.931580 258.015503,341.790253 258.038269,334.649414 C258.042114,333.446655 258.707550,332.246002 259.139679,330.635864 z"/>
  <path opacity="1.000000" stroke="none" d="M 222.287 181.356 C 220.897 182.239 219.559 182.87 217.879 183.13 C 217.858 179.379 218.178 176 218.821 172.737 C 220.171 175.436 221.2 178.018 222.229 180.6 C 222.265 180.768 222.302 180.936 222.287 181.356 Z" style="fill: rgb(216, 140, 3);"/>
  <path opacity="1.000000" stroke="none" d="M 205.791 374.804 C 204.017 369.092 203.47 362.985 207.774 357.01 C 207.394 362.631 206.641 368.475 205.791 374.804 Z" style="fill: rgb(216, 140, 3);"/>
  <path opacity="1.000000" stroke="none" d="M 337.978 306.58 C 335.481 286.776 337.763 265.209 343.045 234.267 C 353.059 236.231 360.085 247.561 367.104 258.888 C 358.989 274.201 350.873 289.503 337.978 306.58 Z" style="stroke-width: 1; transform-origin: 352.035px 270.418px; fill: rgb(216, 140, 3);" transform="matrix(-1, 0, 0, -1, -0.000007, 0.000001)"/>
  <path fill="#D88C04" opacity="1.000000" stroke="none" d="M 366.783 244.236 C 366.819 244.962 366.854 245.689 366.484 246.858 C 364.733 247.592 363.387 247.882 362.008 247.769 C 362.259 245.289 362.543 243.211 363.122 241.245 C 364.539 242.317 365.661 243.277 366.783 244.236 Z"/>
  <path opacity="1.000000" stroke="none" d="M 361.46 244.978 C 363.002 244.606 364.545 244.235 366.471 243.755 C 366.531 246.306 366.206 248.966 365.801 252.134 C 364.47 252.264 363.22 251.885 361.579 250.889 C 361.279 248.506 361.37 246.743 361.46 244.978 Z" style="stroke-width: 1; fill: rgb(216, 140, 3);"/>
  <path opacity="1.000000" stroke="none" d="M 361.47 250.995 C 362.815 250.705 364.161 250.415 365.841 250.04 C 365.893 252.033 365.61 254.111 365.256 256.586 C 364.095 256.688 363.005 256.392 361.574 255.614 C 361.312 253.752 361.391 252.374 361.47 250.995 Z" style="fill: rgb(216, 140, 3);"/>
  <path opacity="1.000000" stroke="none" d="M 367.503 233.582 C 365.225 226.848 363.038 219.733 369.613 212.818 C 369.51 219.437 368.846 226.336 367.503 233.582 Z" style="fill: rgb(216, 140, 3);"/>
  <path fill="#D69412" opacity="1.000000" stroke="none" d="M 370.949 194.785 C 369.823 195.164 368.778 195.125 367.325 194.713 C 366.962 193.598 367.006 192.857 367.05 192.117 C 368.451 190.232 369.853 188.347 371.542 186.272 C 371.562 188.845 371.295 191.606 370.949 194.785 Z"/>
  <path fill="#D8950E" opacity="1.000000" stroke="none" d="M 211.691 309.601 C 211.606 306.145 211.833 302.276 212.539 298.191 C 212.681 301.712 212.342 305.45 211.691 309.601 Z" style=""/>
  <path opacity="1.000000" stroke="none" d="M 367.018 245.831 C 365.822 245.293 364.7 244.334 363.281 242.938 C 363.022 242.071 363.059 241.64 363.097 241.209 C 364.515 239.981 365.933 238.752 367.63 237.358 C 367.636 239.931 367.363 242.67 367.018 245.831 Z" style="fill: rgb(216, 140, 3);"/>
  <path fill="#D8950E" opacity="1.000000" stroke="none" d="M 211.059 320.488 C 210.764 317.496 210.827 314.263 211.188 310.818 C 211.462 313.819 211.439 317.033 211.059 320.488 Z"/>
  <path fill="#D8950E" opacity="1.000000" stroke="none" d=" M215.936737,263.603516 C216.036026,260.534546 216.219406,257.052460 216.630981,253.276138 C216.579742,256.384735 216.300293,259.787567 215.936737,263.603516 z"/>
  <path fill="#D8950E" opacity="1.000000" stroke="none" d="M 209.764 333.741 C 209.88 330.353 210.107 326.402 210.8 322.184 C 210.803 325.672 210.34 329.425 209.764 333.741 Z" style=""/>
  <path opacity="1.000000" stroke="none" d="M 374.891 140.26 C 369.815 136.662 370.502 131.791 374.242 126.347 C 374.856 130.456 374.936 134.942 374.891 140.26 Z" style="fill: rgb(216, 140, 3);"/>
  <path fill="#EDC489" opacity="1.000000" stroke="none" d=" M258.047729,361.034851 C258.086823,364.389465 258.125946,367.744110 257.881897,371.550964 C257.598724,372.003174 257.157837,372.003937 257.157837,372.003937 C257.217468,367.066345 257.277100,362.128754 257.732117,356.952576 C258.117035,356.928223 258.106537,357.142456 258.048920,358.056030 C258.017090,359.515167 258.032410,360.275024 258.047729,361.034851 z"/>
  <path fill="#D69412" opacity="1.000000" stroke="none" d=" M370.010529,205.663559 C369.970154,203.490067 370.112732,200.945740 370.545593,198.202911 C370.621765,200.433853 370.407654,202.863297 370.010529,205.663559 z"/>
  <path fill="#D8950E" opacity="1.000000" stroke="none" d=" M226.002213,139.666992 C226.083328,137.977493 226.336288,135.936752 226.855530,133.979095 C226.805878,135.813354 226.489960,137.564575 226.002213,139.666992 z"/>
  <path opacity="1.000000" stroke="none" d="M 369.512 141.504 C 370.978 140.766 372.445 140.027 374.276 139.072 C 374.332 144.148 374.024 149.439 373.638 155.742 C 372.373 156.001 371.185 155.248 369.625 153.267 C 369.34 148.525 369.426 145.017 369.512 141.504 Z" style="stroke-width: 1; fill: rgb(216, 140, 3);"/>
  <path fill="#D69412" opacity="1.000000" stroke="none" d="M 373.775 152.761 C 369.673 150.824 370.489 148.045 373.308 144.863 C 373.752 147.116 373.817 149.669 373.775 152.761 Z" style=""/>
  <path fill="#D69412" opacity="1.000000" stroke="none" d=" M372.001709,179.683655 C371.975342,178.149353 372.120667,176.255478 372.545410,174.179230 C372.607666,175.772598 372.390503,177.548340 372.001709,179.683655 z"/>
  <path fill="#D69412" opacity="1.000000" stroke="none" d=" M474.898132,336.673035 C473.308777,335.863190 471.780853,334.694641 470.140076,333.221741 C471.671326,334.049683 473.315460,335.182007 474.898132,336.673035 z"/>
  <path fill="#D8950E" opacity="1.000000" stroke="none" d="M 199.873 414.815 C 199.926 413.312 200.064 411.424 200.484 409.357 C 200.496 410.928 200.227 412.678 199.873 414.815 Z"/>
  <path fill="#EDC489" opacity="1.000000" stroke="none" d=" M258.041290,372.992218 C258.082733,375.369629 258.124176,377.747070 258.071472,380.883667 C257.946716,382.068329 257.916138,382.493835 257.885559,382.919342 C257.598206,379.905365 257.310852,376.891388 257.311523,373.437012 C257.599579,372.996613 258.041290,372.992218 258.041290,372.992218 z"/>
  <path fill="#D8950E" opacity="1.000000" stroke="none" d=" M225.907089,143.627121 C225.677704,143.081726 225.518188,142.164688 225.598297,141.123779 C225.884247,141.751755 225.930588,142.503632 225.907089,143.627121 z"/>
  <path fill="#D8950E" opacity="1.000000" stroke="none" d=" M197.939117,424.668518 C198.011475,423.782135 198.163177,422.545807 198.575394,421.164001 C198.563431,422.118530 198.290955,423.218567 197.939117,424.668518 z"/>
  <path fill="#D8950E" opacity="1.000000" stroke="none" d=" M194.397507,440.954773 C194.216095,440.463135 194.318542,439.834534 194.629837,439.109283 C194.786255,439.614349 194.733810,440.216064 194.397507,440.954773 z"/>
  <path fill="#EBC780" opacity="1.000000" stroke="none" d=" M257.956238,383.109802 C257.916138,382.493835 257.946716,382.068329 258.000916,381.324341 C258.104553,381.737457 258.184509,382.469055 258.248962,383.425385 C258.233398,383.650146 258.026886,383.300232 257.956238,383.109802 z"/>
  <path fill="#EBC780" opacity="1.000000" stroke="none" d=" M258.076904,372.746094 C258.041290,372.992218 257.599579,372.996613 257.378723,372.996277 C257.111938,372.830536 257.066040,372.665131 257.088989,372.251831 C257.157837,372.003937 257.598724,372.003174 257.819763,372.005432 C258.040833,372.007721 258.112518,372.499939 258.076904,372.746094 z"/>
  <path fill="#D8950E" opacity="1.000000" stroke="none" d=" M197.285034,428.052765 C197.201569,427.895264 197.370743,427.637909 197.696655,427.208374 C197.736176,427.333893 197.630936,427.639465 197.285034,428.052765 z"/>
  <path fill="#D8950E" opacity="1.000000" stroke="none" d=" M196.930878,429.762085 C196.705811,429.770172 196.668137,429.499268 196.817825,429.087952 C196.920486,429.139221 196.958191,429.317749 196.930878,429.762085 z"/>
  <path fill="#D8A651" opacity="1.000000" stroke="none" d=" M91.103821,355.681885 C90.120422,358.255005 88.838722,361.008423 87.237610,363.884521 C88.213966,361.292175 89.509750,358.577209 91.103821,355.681885 z"/>
  <path fill="#D8A651" opacity="1.000000" stroke="none" d=" M85.665131,366.062836 C84.919136,367.958923 83.854736,369.994629 82.480469,372.211578 C83.229309,370.329376 84.288017,368.265900 85.665131,366.062836 z"/>
  <path fill="#D8A651" opacity="1.000000" stroke="none" d=" M79.606201,376.007568 C79.162750,377.550903 78.379005,379.178986 77.254265,380.893402 C77.697487,379.350586 78.481697,377.721436 79.606201,376.007568 z"/>
  <path fill="#D8A651" opacity="1.000000" stroke="none" d=" M76.617203,381.023010 C76.159691,382.540253 75.364838,384.153564 74.244331,385.890137 C74.705734,384.381989 75.492798,382.750549 76.617203,381.023010 z"/>
  <path fill="#D8A651" opacity="1.000000" stroke="none" d=" M81.804794,372.772980 C81.616302,373.646149 81.107216,374.696259 80.251801,375.863007 C80.431709,374.969757 80.957947,373.959808 81.804794,372.772980 z"/>
  <path fill="#D8A651" opacity="1.000000" stroke="none" d=" M86.688522,364.044861 C86.790527,364.488983 86.590889,365.056610 86.159821,365.827759 C86.081223,365.410278 86.234047,364.789307 86.688522,364.044861 z"/>
  <path opacity="1.000000" stroke="none" d="M 352.366 194.906 C 358.171 193.733 363.98 192.561 371.232 191.044 C 371.456 199.104 370.234 207.508 368.707 217.518 C 363.695 217.931 358.991 216.733 352.814 213.587 C 351.684 206.056 352.025 200.483 352.366 194.906 Z" style="stroke-width: 1; fill: rgb(216, 140, 3);"/>
  <path fill="#F8D201" opacity="1.000000" stroke="none" d=" M362.994934,241.567184 C362.978363,242.447128 362.941071,242.877945 362.905273,243.632568 C362.622681,246.034622 362.338654,248.112854 362.088196,250.593048 C362.042999,252.373734 361.964203,253.752472 361.894684,255.543716 C361.139435,267.376648 360.374878,278.797058 359.584290,290.648376 C359.074219,293.009216 358.209991,294.930267 358.164581,296.870514 C357.669495,318.017700 357.118195,339.204559 362.177399,359.967773 C363.497040,365.383575 365.975281,370.517090 368.149078,375.988770 C376.231812,401.424683 400.901245,406.699097 422.985474,397.509705 C444.468536,388.570465 453.188324,370.577881 456.956665,349.177795 C457.874512,343.965179 464.328949,340.496796 468.402252,343.653625 C469.681702,344.645233 470.023224,347.945496 469.566498,349.902679 C466.316559,363.830200 463.733368,378.026123 459.052399,391.480652 C451.897552,412.045898 441.898834,431.356903 425.765594,446.593597 C404.844025,466.352478 379.908539,474.435211 351.398529,470.074127 C328.267334,466.535889 313.845306,451.940186 304.967834,431.212646 C297.264954,413.227783 297.327026,394.210541 298.319336,375.145782 C298.786224,366.175323 299.340210,357.208160 299.972198,348.247803 C301.913971,320.717957 303.784912,293.182190 305.927399,265.667725 C307.811768,241.468140 310.051971,217.296463 312.084839,193.108231 C314.034271,169.912613 315.889832,146.709106 317.845581,123.514038 C318.748199,112.809402 318.152893,112.239563 307.620941,113.744194 C281.411987,117.488503 255.189011,121.135376 228.989517,124.944168 C226.993805,125.234299 225.138733,126.491722 222.937622,127.865524 C222.570740,128.950317 222.484497,129.469101 222.398254,129.987900 C221.928894,136.693680 221.459518,143.399475 221.021759,150.551926 C220.435074,157.048218 219.816772,163.097839 219.201553,169.562561 C219.160751,170.429504 219.116882,170.881348 219.089279,171.673660 C218.785187,175.393082 218.464813,178.772034 218.168091,182.565125 C218.135391,183.736603 218.079041,184.493958 218.044052,185.630920 C217.110184,196.724030 216.154968,207.437515 215.202942,218.564453 C215.149567,219.736572 215.092987,220.495224 215.062958,221.634079 C214.500824,229.061646 213.912140,236.109009 213.313782,243.566223 C213.245667,244.428452 213.187225,244.880844 213.138428,245.675659 C212.497467,253.731644 211.846878,261.445221 211.165314,269.569885 C211.100342,270.431824 211.066360,270.882629 211.052124,271.672302 C207.696487,307.092194 204.516891,342.193756 200.840210,377.243164 C199.541183,389.626740 197.028351,401.882965 194.857178,414.824677 C194.532089,415.977203 194.419510,416.502350 194.306946,417.027527 C192.810699,424.340057 191.314468,431.652618 189.631485,439.658325 C189.242538,441.228302 189.040314,442.105072 188.838120,442.981842 C186.449860,449.188202 184.146851,455.429016 181.656738,461.594238 C175.141541,477.725098 165.836304,491.241089 149.636658,499.526611 C137.375000,505.797943 125.289558,507.055817 112.615875,502.165619 C94.170197,495.048248 80.343353,468.701782 95.411484,443.424896 C106.154350,425.403717 117.116920,407.504089 127.439941,389.244080 C147.747437,353.323029 162.708008,315.211243 170.746658,274.723206 C175.729431,249.626633 179.690536,224.256851 182.570755,198.835281 C184.907043,178.214615 184.937576,157.333405 186.019775,136.569260 C186.200180,133.107742 185.500778,130.789810 181.221573,130.839371 C154.297699,131.151215 128.931671,136.349731 107.332748,153.780243 C97.045914,162.081818 89.443169,172.541397 83.085953,183.975113 C80.415764,188.777542 77.772957,193.629578 75.611542,198.670792 C73.466637,203.673508 69.751213,205.340210 64.701736,205.599594 C61.563393,205.760818 60.641514,204.593750 61.575481,201.813385 C63.113205,197.235657 64.801811,192.708878 66.395363,188.149628 C71.176659,174.470032 76.420128,160.929840 80.620117,147.073624 C90.873505,113.246559 113.457504,91.746155 146.800262,82.221947 C170.921463,75.331825 195.513245,69.725433 220.209503,65.301170 C253.606949,59.318119 287.294403,54.940018 320.878754,50.018719 C345.560822,46.401920 370.271790,42.980320 394.979645,39.541927 C418.542389,36.262894 442.132141,33.173840 465.674744,29.758068 C470.069214,29.120478 471.243835,30.432642 471.203583,34.613373 C471.043243,51.274174 470.909302,67.941078 471.223480,84.597084 C471.319763,89.701698 469.215118,91.210968 464.707306,91.801361 C444.733215,94.417412 424.783356,97.219574 404.829285,99.987419 C396.089355,101.199745 387.390015,102.807411 378.615479,103.629860 C373.215851,104.135971 371.269958,106.523849 371.769928,111.638901 C371.947235,113.452705 371.773895,115.300797 371.763672,117.604790 C371.495270,121.433372 371.223755,124.790390 370.969177,128.563019 C370.421875,137.423096 369.828888,145.865753 369.300262,154.312454 C368.511871,166.910645 367.768860,179.511673 367.028137,192.559586 C367.005829,193.748306 366.961975,194.488922 366.933044,195.599899 C365.955231,206.381927 364.929871,216.790634 363.984650,227.206619 C363.564545,231.836227 363.306030,236.480469 362.994934,241.567184 z"/>
  <path fill="#D8950E" opacity="1.000000" stroke="none" d=" M189.103561,442.876770 C189.040314,442.105072 189.242538,441.228302 189.621979,440.059326 C189.655823,440.768616 189.512421,441.770172 189.103561,442.876770 z"/>
  <path fill="#D8950E" opacity="1.000000" stroke="none" d=" M222.573120,129.883270 C222.484497,129.469101 222.570740,128.950317 222.799225,128.203812 C222.876953,128.576950 222.812454,129.177795 222.573120,129.883270 z"/>
  <path fill="#EBC780" opacity="1.000000" stroke="none" d=" M258.149414,360.793213 C258.032410,360.275024 258.017090,359.515167 258.016296,358.376099 C258.104279,358.848450 258.177704,359.700012 258.149414,360.793213 z"/>
</svg>